%TF.GenerationSoftware,KiCad,Pcbnew,(6.0.11)*%
%TF.CreationDate,2023-02-06T13:48:54-06:00*%
%TF.ProjectId,InterferometerElectronics,496e7465-7266-4657-926f-6d6574657245,rev?*%
%TF.SameCoordinates,Original*%
%TF.FileFunction,Legend,Bot*%
%TF.FilePolarity,Positive*%
%FSLAX46Y46*%
G04 Gerber Fmt 4.6, Leading zero omitted, Abs format (unit mm)*
G04 Created by KiCad (PCBNEW (6.0.11)) date 2023-02-06 13:48:54*
%MOMM*%
%LPD*%
G01*
G04 APERTURE LIST*
G04 Aperture macros list*
%AMRoundRect*
0 Rectangle with rounded corners*
0 $1 Rounding radius*
0 $2 $3 $4 $5 $6 $7 $8 $9 X,Y pos of 4 corners*
0 Add a 4 corners polygon primitive as box body*
4,1,4,$2,$3,$4,$5,$6,$7,$8,$9,$2,$3,0*
0 Add four circle primitives for the rounded corners*
1,1,$1+$1,$2,$3*
1,1,$1+$1,$4,$5*
1,1,$1+$1,$6,$7*
1,1,$1+$1,$8,$9*
0 Add four rect primitives between the rounded corners*
20,1,$1+$1,$2,$3,$4,$5,0*
20,1,$1+$1,$4,$5,$6,$7,0*
20,1,$1+$1,$6,$7,$8,$9,0*
20,1,$1+$1,$8,$9,$2,$3,0*%
G04 Aperture macros list end*
%ADD10C,0.150000*%
%ADD11C,0.120000*%
%ADD12C,1.600000*%
%ADD13O,1.600000X1.600000*%
%ADD14RoundRect,0.250000X-1.550000X0.650000X-1.550000X-0.650000X1.550000X-0.650000X1.550000X0.650000X0*%
%ADD15O,3.600000X1.800000*%
%ADD16C,2.050000*%
%ADD17C,2.250000*%
%ADD18C,0.800000*%
%ADD19C,6.000000*%
%ADD20R,2.200000X2.200000*%
%ADD21O,2.200000X2.200000*%
%ADD22C,2.000000*%
%ADD23R,1.600000X1.600000*%
%ADD24O,3.500000X3.500000*%
%ADD25R,2.000000X1.905000*%
%ADD26O,2.000000X1.905000*%
G04 APERTURE END LIST*
D10*
%TO.C,R2*%
X82752380Y-50783333D02*
X82276190Y-50450000D01*
X82752380Y-50211904D02*
X81752380Y-50211904D01*
X81752380Y-50592857D01*
X81800000Y-50688095D01*
X81847619Y-50735714D01*
X81942857Y-50783333D01*
X82085714Y-50783333D01*
X82180952Y-50735714D01*
X82228571Y-50688095D01*
X82276190Y-50592857D01*
X82276190Y-50211904D01*
X81847619Y-51164285D02*
X81800000Y-51211904D01*
X81752380Y-51307142D01*
X81752380Y-51545238D01*
X81800000Y-51640476D01*
X81847619Y-51688095D01*
X81942857Y-51735714D01*
X82038095Y-51735714D01*
X82180952Y-51688095D01*
X82752380Y-51116666D01*
X82752380Y-51735714D01*
%TO.C,D1*%
X108252380Y-46261904D02*
X107252380Y-46261904D01*
X107252380Y-46500000D01*
X107300000Y-46642857D01*
X107395238Y-46738095D01*
X107490476Y-46785714D01*
X107680952Y-46833333D01*
X107823809Y-46833333D01*
X108014285Y-46785714D01*
X108109523Y-46738095D01*
X108204761Y-46642857D01*
X108252380Y-46500000D01*
X108252380Y-46261904D01*
X108252380Y-47785714D02*
X108252380Y-47214285D01*
X108252380Y-47500000D02*
X107252380Y-47500000D01*
X107395238Y-47404761D01*
X107490476Y-47309523D01*
X107538095Y-47214285D01*
X109652380Y-51938095D02*
X108652380Y-51938095D01*
X109652380Y-52509523D02*
X109080952Y-52080952D01*
X108652380Y-52509523D02*
X109223809Y-51938095D01*
%TO.C,C11*%
X102357142Y-77357142D02*
X102404761Y-77309523D01*
X102452380Y-77166666D01*
X102452380Y-77071428D01*
X102404761Y-76928571D01*
X102309523Y-76833333D01*
X102214285Y-76785714D01*
X102023809Y-76738095D01*
X101880952Y-76738095D01*
X101690476Y-76785714D01*
X101595238Y-76833333D01*
X101500000Y-76928571D01*
X101452380Y-77071428D01*
X101452380Y-77166666D01*
X101500000Y-77309523D01*
X101547619Y-77357142D01*
X102452380Y-78309523D02*
X102452380Y-77738095D01*
X102452380Y-78023809D02*
X101452380Y-78023809D01*
X101595238Y-77928571D01*
X101690476Y-77833333D01*
X101738095Y-77738095D01*
X102452380Y-79261904D02*
X102452380Y-78690476D01*
X102452380Y-78976190D02*
X101452380Y-78976190D01*
X101595238Y-78880952D01*
X101690476Y-78785714D01*
X101738095Y-78690476D01*
%TO.C,U2*%
X75751904Y-54852380D02*
X75751904Y-55661904D01*
X75704285Y-55757142D01*
X75656666Y-55804761D01*
X75561428Y-55852380D01*
X75370952Y-55852380D01*
X75275714Y-55804761D01*
X75228095Y-55757142D01*
X75180476Y-55661904D01*
X75180476Y-54852380D01*
X74751904Y-54947619D02*
X74704285Y-54900000D01*
X74609047Y-54852380D01*
X74370952Y-54852380D01*
X74275714Y-54900000D01*
X74228095Y-54947619D01*
X74180476Y-55042857D01*
X74180476Y-55138095D01*
X74228095Y-55280952D01*
X74799523Y-55852380D01*
X74180476Y-55852380D01*
%TO.C,R7*%
X94852380Y-62433333D02*
X94376190Y-62100000D01*
X94852380Y-61861904D02*
X93852380Y-61861904D01*
X93852380Y-62242857D01*
X93900000Y-62338095D01*
X93947619Y-62385714D01*
X94042857Y-62433333D01*
X94185714Y-62433333D01*
X94280952Y-62385714D01*
X94328571Y-62338095D01*
X94376190Y-62242857D01*
X94376190Y-61861904D01*
X93852380Y-62766666D02*
X93852380Y-63433333D01*
X94852380Y-63004761D01*
%TO.C,C1*%
X128166666Y-56357142D02*
X128214285Y-56404761D01*
X128357142Y-56452380D01*
X128452380Y-56452380D01*
X128595238Y-56404761D01*
X128690476Y-56309523D01*
X128738095Y-56214285D01*
X128785714Y-56023809D01*
X128785714Y-55880952D01*
X128738095Y-55690476D01*
X128690476Y-55595238D01*
X128595238Y-55500000D01*
X128452380Y-55452380D01*
X128357142Y-55452380D01*
X128214285Y-55500000D01*
X128166666Y-55547619D01*
X127214285Y-56452380D02*
X127785714Y-56452380D01*
X127500000Y-56452380D02*
X127500000Y-55452380D01*
X127595238Y-55595238D01*
X127690476Y-55690476D01*
X127785714Y-55738095D01*
%TO.C,C3*%
X77166666Y-38757142D02*
X77214285Y-38804761D01*
X77357142Y-38852380D01*
X77452380Y-38852380D01*
X77595238Y-38804761D01*
X77690476Y-38709523D01*
X77738095Y-38614285D01*
X77785714Y-38423809D01*
X77785714Y-38280952D01*
X77738095Y-38090476D01*
X77690476Y-37995238D01*
X77595238Y-37900000D01*
X77452380Y-37852380D01*
X77357142Y-37852380D01*
X77214285Y-37900000D01*
X77166666Y-37947619D01*
X76833333Y-37852380D02*
X76214285Y-37852380D01*
X76547619Y-38233333D01*
X76404761Y-38233333D01*
X76309523Y-38280952D01*
X76261904Y-38328571D01*
X76214285Y-38423809D01*
X76214285Y-38661904D01*
X76261904Y-38757142D01*
X76309523Y-38804761D01*
X76404761Y-38852380D01*
X76690476Y-38852380D01*
X76785714Y-38804761D01*
X76833333Y-38757142D01*
%TO.C,C4*%
X76666666Y-57757142D02*
X76714285Y-57804761D01*
X76857142Y-57852380D01*
X76952380Y-57852380D01*
X77095238Y-57804761D01*
X77190476Y-57709523D01*
X77238095Y-57614285D01*
X77285714Y-57423809D01*
X77285714Y-57280952D01*
X77238095Y-57090476D01*
X77190476Y-56995238D01*
X77095238Y-56900000D01*
X76952380Y-56852380D01*
X76857142Y-56852380D01*
X76714285Y-56900000D01*
X76666666Y-56947619D01*
X75809523Y-57185714D02*
X75809523Y-57852380D01*
X76047619Y-56804761D02*
X76285714Y-57519047D01*
X75666666Y-57519047D01*
%TO.C,C2*%
X128166666Y-37757142D02*
X128214285Y-37804761D01*
X128357142Y-37852380D01*
X128452380Y-37852380D01*
X128595238Y-37804761D01*
X128690476Y-37709523D01*
X128738095Y-37614285D01*
X128785714Y-37423809D01*
X128785714Y-37280952D01*
X128738095Y-37090476D01*
X128690476Y-36995238D01*
X128595238Y-36900000D01*
X128452380Y-36852380D01*
X128357142Y-36852380D01*
X128214285Y-36900000D01*
X128166666Y-36947619D01*
X127785714Y-36947619D02*
X127738095Y-36900000D01*
X127642857Y-36852380D01*
X127404761Y-36852380D01*
X127309523Y-36900000D01*
X127261904Y-36947619D01*
X127214285Y-37042857D01*
X127214285Y-37138095D01*
X127261904Y-37280952D01*
X127833333Y-37852380D01*
X127214285Y-37852380D01*
%TO.C,U1*%
X137282380Y-46488095D02*
X138091904Y-46488095D01*
X138187142Y-46535714D01*
X138234761Y-46583333D01*
X138282380Y-46678571D01*
X138282380Y-46869047D01*
X138234761Y-46964285D01*
X138187142Y-47011904D01*
X138091904Y-47059523D01*
X137282380Y-47059523D01*
X138282380Y-48059523D02*
X138282380Y-47488095D01*
X138282380Y-47773809D02*
X137282380Y-47773809D01*
X137425238Y-47678571D01*
X137520476Y-47583333D01*
X137568095Y-47488095D01*
%TO.C,R6*%
X63766666Y-47652380D02*
X64100000Y-47176190D01*
X64338095Y-47652380D02*
X64338095Y-46652380D01*
X63957142Y-46652380D01*
X63861904Y-46700000D01*
X63814285Y-46747619D01*
X63766666Y-46842857D01*
X63766666Y-46985714D01*
X63814285Y-47080952D01*
X63861904Y-47128571D01*
X63957142Y-47176190D01*
X64338095Y-47176190D01*
X62909523Y-46652380D02*
X63100000Y-46652380D01*
X63195238Y-46700000D01*
X63242857Y-46747619D01*
X63338095Y-46890476D01*
X63385714Y-47080952D01*
X63385714Y-47461904D01*
X63338095Y-47557142D01*
X63290476Y-47604761D01*
X63195238Y-47652380D01*
X63004761Y-47652380D01*
X62909523Y-47604761D01*
X62861904Y-47557142D01*
X62814285Y-47461904D01*
X62814285Y-47223809D01*
X62861904Y-47128571D01*
X62909523Y-47080952D01*
X63004761Y-47033333D01*
X63195238Y-47033333D01*
X63290476Y-47080952D01*
X63338095Y-47128571D01*
X63385714Y-47223809D01*
%TO.C,R4*%
X77822380Y-70713333D02*
X77346190Y-70380000D01*
X77822380Y-70141904D02*
X76822380Y-70141904D01*
X76822380Y-70522857D01*
X76870000Y-70618095D01*
X76917619Y-70665714D01*
X77012857Y-70713333D01*
X77155714Y-70713333D01*
X77250952Y-70665714D01*
X77298571Y-70618095D01*
X77346190Y-70522857D01*
X77346190Y-70141904D01*
X77155714Y-71570476D02*
X77822380Y-71570476D01*
X76774761Y-71332380D02*
X77489047Y-71094285D01*
X77489047Y-71713333D01*
%TO.C,C8*%
X65016666Y-41007142D02*
X65064285Y-41054761D01*
X65207142Y-41102380D01*
X65302380Y-41102380D01*
X65445238Y-41054761D01*
X65540476Y-40959523D01*
X65588095Y-40864285D01*
X65635714Y-40673809D01*
X65635714Y-40530952D01*
X65588095Y-40340476D01*
X65540476Y-40245238D01*
X65445238Y-40150000D01*
X65302380Y-40102380D01*
X65207142Y-40102380D01*
X65064285Y-40150000D01*
X65016666Y-40197619D01*
X64445238Y-40530952D02*
X64540476Y-40483333D01*
X64588095Y-40435714D01*
X64635714Y-40340476D01*
X64635714Y-40292857D01*
X64588095Y-40197619D01*
X64540476Y-40150000D01*
X64445238Y-40102380D01*
X64254761Y-40102380D01*
X64159523Y-40150000D01*
X64111904Y-40197619D01*
X64064285Y-40292857D01*
X64064285Y-40340476D01*
X64111904Y-40435714D01*
X64159523Y-40483333D01*
X64254761Y-40530952D01*
X64445238Y-40530952D01*
X64540476Y-40578571D01*
X64588095Y-40626190D01*
X64635714Y-40721428D01*
X64635714Y-40911904D01*
X64588095Y-41007142D01*
X64540476Y-41054761D01*
X64445238Y-41102380D01*
X64254761Y-41102380D01*
X64159523Y-41054761D01*
X64111904Y-41007142D01*
X64064285Y-40911904D01*
X64064285Y-40721428D01*
X64111904Y-40626190D01*
X64159523Y-40578571D01*
X64254761Y-40530952D01*
%TO.C,R10*%
X65352380Y-75977142D02*
X64876190Y-75643809D01*
X65352380Y-75405714D02*
X64352380Y-75405714D01*
X64352380Y-75786666D01*
X64400000Y-75881904D01*
X64447619Y-75929523D01*
X64542857Y-75977142D01*
X64685714Y-75977142D01*
X64780952Y-75929523D01*
X64828571Y-75881904D01*
X64876190Y-75786666D01*
X64876190Y-75405714D01*
X65352380Y-76929523D02*
X65352380Y-76358095D01*
X65352380Y-76643809D02*
X64352380Y-76643809D01*
X64495238Y-76548571D01*
X64590476Y-76453333D01*
X64638095Y-76358095D01*
X64352380Y-77548571D02*
X64352380Y-77643809D01*
X64400000Y-77739047D01*
X64447619Y-77786666D01*
X64542857Y-77834285D01*
X64733333Y-77881904D01*
X64971428Y-77881904D01*
X65161904Y-77834285D01*
X65257142Y-77786666D01*
X65304761Y-77739047D01*
X65352380Y-77643809D01*
X65352380Y-77548571D01*
X65304761Y-77453333D01*
X65257142Y-77405714D01*
X65161904Y-77358095D01*
X64971428Y-77310476D01*
X64733333Y-77310476D01*
X64542857Y-77358095D01*
X64447619Y-77405714D01*
X64400000Y-77453333D01*
X64352380Y-77548571D01*
%TO.C,R3*%
X94536666Y-42152380D02*
X94870000Y-41676190D01*
X95108095Y-42152380D02*
X95108095Y-41152380D01*
X94727142Y-41152380D01*
X94631904Y-41200000D01*
X94584285Y-41247619D01*
X94536666Y-41342857D01*
X94536666Y-41485714D01*
X94584285Y-41580952D01*
X94631904Y-41628571D01*
X94727142Y-41676190D01*
X95108095Y-41676190D01*
X94203333Y-41152380D02*
X93584285Y-41152380D01*
X93917619Y-41533333D01*
X93774761Y-41533333D01*
X93679523Y-41580952D01*
X93631904Y-41628571D01*
X93584285Y-41723809D01*
X93584285Y-41961904D01*
X93631904Y-42057142D01*
X93679523Y-42104761D01*
X93774761Y-42152380D01*
X94060476Y-42152380D01*
X94155714Y-42104761D01*
X94203333Y-42057142D01*
%TO.C,R5*%
X63856666Y-51852380D02*
X64190000Y-51376190D01*
X64428095Y-51852380D02*
X64428095Y-50852380D01*
X64047142Y-50852380D01*
X63951904Y-50900000D01*
X63904285Y-50947619D01*
X63856666Y-51042857D01*
X63856666Y-51185714D01*
X63904285Y-51280952D01*
X63951904Y-51328571D01*
X64047142Y-51376190D01*
X64428095Y-51376190D01*
X62951904Y-50852380D02*
X63428095Y-50852380D01*
X63475714Y-51328571D01*
X63428095Y-51280952D01*
X63332857Y-51233333D01*
X63094761Y-51233333D01*
X62999523Y-51280952D01*
X62951904Y-51328571D01*
X62904285Y-51423809D01*
X62904285Y-51661904D01*
X62951904Y-51757142D01*
X62999523Y-51804761D01*
X63094761Y-51852380D01*
X63332857Y-51852380D01*
X63428095Y-51804761D01*
X63475714Y-51757142D01*
%TO.C,R9*%
X94852380Y-75833333D02*
X94376190Y-75500000D01*
X94852380Y-75261904D02*
X93852380Y-75261904D01*
X93852380Y-75642857D01*
X93900000Y-75738095D01*
X93947619Y-75785714D01*
X94042857Y-75833333D01*
X94185714Y-75833333D01*
X94280952Y-75785714D01*
X94328571Y-75738095D01*
X94376190Y-75642857D01*
X94376190Y-75261904D01*
X94852380Y-76309523D02*
X94852380Y-76500000D01*
X94804761Y-76595238D01*
X94757142Y-76642857D01*
X94614285Y-76738095D01*
X94423809Y-76785714D01*
X94042857Y-76785714D01*
X93947619Y-76738095D01*
X93900000Y-76690476D01*
X93852380Y-76595238D01*
X93852380Y-76404761D01*
X93900000Y-76309523D01*
X93947619Y-76261904D01*
X94042857Y-76214285D01*
X94280952Y-76214285D01*
X94376190Y-76261904D01*
X94423809Y-76309523D01*
X94471428Y-76404761D01*
X94471428Y-76595238D01*
X94423809Y-76690476D01*
X94376190Y-76738095D01*
X94280952Y-76785714D01*
%TO.C,C12*%
X58607142Y-77557142D02*
X58654761Y-77509523D01*
X58702380Y-77366666D01*
X58702380Y-77271428D01*
X58654761Y-77128571D01*
X58559523Y-77033333D01*
X58464285Y-76985714D01*
X58273809Y-76938095D01*
X58130952Y-76938095D01*
X57940476Y-76985714D01*
X57845238Y-77033333D01*
X57750000Y-77128571D01*
X57702380Y-77271428D01*
X57702380Y-77366666D01*
X57750000Y-77509523D01*
X57797619Y-77557142D01*
X58702380Y-78509523D02*
X58702380Y-77938095D01*
X58702380Y-78223809D02*
X57702380Y-78223809D01*
X57845238Y-78128571D01*
X57940476Y-78033333D01*
X57988095Y-77938095D01*
X57797619Y-78890476D02*
X57750000Y-78938095D01*
X57702380Y-79033333D01*
X57702380Y-79271428D01*
X57750000Y-79366666D01*
X57797619Y-79414285D01*
X57892857Y-79461904D01*
X57988095Y-79461904D01*
X58130952Y-79414285D01*
X58702380Y-78842857D01*
X58702380Y-79461904D01*
%TO.C,C10*%
X58607142Y-64157142D02*
X58654761Y-64109523D01*
X58702380Y-63966666D01*
X58702380Y-63871428D01*
X58654761Y-63728571D01*
X58559523Y-63633333D01*
X58464285Y-63585714D01*
X58273809Y-63538095D01*
X58130952Y-63538095D01*
X57940476Y-63585714D01*
X57845238Y-63633333D01*
X57750000Y-63728571D01*
X57702380Y-63871428D01*
X57702380Y-63966666D01*
X57750000Y-64109523D01*
X57797619Y-64157142D01*
X58702380Y-65109523D02*
X58702380Y-64538095D01*
X58702380Y-64823809D02*
X57702380Y-64823809D01*
X57845238Y-64728571D01*
X57940476Y-64633333D01*
X57988095Y-64538095D01*
X57702380Y-65728571D02*
X57702380Y-65823809D01*
X57750000Y-65919047D01*
X57797619Y-65966666D01*
X57892857Y-66014285D01*
X58083333Y-66061904D01*
X58321428Y-66061904D01*
X58511904Y-66014285D01*
X58607142Y-65966666D01*
X58654761Y-65919047D01*
X58702380Y-65823809D01*
X58702380Y-65728571D01*
X58654761Y-65633333D01*
X58607142Y-65585714D01*
X58511904Y-65538095D01*
X58321428Y-65490476D01*
X58083333Y-65490476D01*
X57892857Y-65538095D01*
X57797619Y-65585714D01*
X57750000Y-65633333D01*
X57702380Y-65728571D01*
%TO.C,C5*%
X92866666Y-47057142D02*
X92914285Y-47104761D01*
X93057142Y-47152380D01*
X93152380Y-47152380D01*
X93295238Y-47104761D01*
X93390476Y-47009523D01*
X93438095Y-46914285D01*
X93485714Y-46723809D01*
X93485714Y-46580952D01*
X93438095Y-46390476D01*
X93390476Y-46295238D01*
X93295238Y-46200000D01*
X93152380Y-46152380D01*
X93057142Y-46152380D01*
X92914285Y-46200000D01*
X92866666Y-46247619D01*
X91961904Y-46152380D02*
X92438095Y-46152380D01*
X92485714Y-46628571D01*
X92438095Y-46580952D01*
X92342857Y-46533333D01*
X92104761Y-46533333D01*
X92009523Y-46580952D01*
X91961904Y-46628571D01*
X91914285Y-46723809D01*
X91914285Y-46961904D01*
X91961904Y-47057142D01*
X92009523Y-47104761D01*
X92104761Y-47152380D01*
X92342857Y-47152380D01*
X92438095Y-47104761D01*
X92485714Y-47057142D01*
%TO.C,C9*%
X102357142Y-63833333D02*
X102404761Y-63785714D01*
X102452380Y-63642857D01*
X102452380Y-63547619D01*
X102404761Y-63404761D01*
X102309523Y-63309523D01*
X102214285Y-63261904D01*
X102023809Y-63214285D01*
X101880952Y-63214285D01*
X101690476Y-63261904D01*
X101595238Y-63309523D01*
X101500000Y-63404761D01*
X101452380Y-63547619D01*
X101452380Y-63642857D01*
X101500000Y-63785714D01*
X101547619Y-63833333D01*
X102452380Y-64309523D02*
X102452380Y-64500000D01*
X102404761Y-64595238D01*
X102357142Y-64642857D01*
X102214285Y-64738095D01*
X102023809Y-64785714D01*
X101642857Y-64785714D01*
X101547619Y-64738095D01*
X101500000Y-64690476D01*
X101452380Y-64595238D01*
X101452380Y-64404761D01*
X101500000Y-64309523D01*
X101547619Y-64261904D01*
X101642857Y-64214285D01*
X101880952Y-64214285D01*
X101976190Y-64261904D01*
X102023809Y-64309523D01*
X102071428Y-64404761D01*
X102071428Y-64595238D01*
X102023809Y-64690476D01*
X101976190Y-64738095D01*
X101880952Y-64785714D01*
%TO.C,R8*%
X65352380Y-62553333D02*
X64876190Y-62220000D01*
X65352380Y-61981904D02*
X64352380Y-61981904D01*
X64352380Y-62362857D01*
X64400000Y-62458095D01*
X64447619Y-62505714D01*
X64542857Y-62553333D01*
X64685714Y-62553333D01*
X64780952Y-62505714D01*
X64828571Y-62458095D01*
X64876190Y-62362857D01*
X64876190Y-61981904D01*
X64780952Y-63124761D02*
X64733333Y-63029523D01*
X64685714Y-62981904D01*
X64590476Y-62934285D01*
X64542857Y-62934285D01*
X64447619Y-62981904D01*
X64400000Y-63029523D01*
X64352380Y-63124761D01*
X64352380Y-63315238D01*
X64400000Y-63410476D01*
X64447619Y-63458095D01*
X64542857Y-63505714D01*
X64590476Y-63505714D01*
X64685714Y-63458095D01*
X64733333Y-63410476D01*
X64780952Y-63315238D01*
X64780952Y-63124761D01*
X64828571Y-63029523D01*
X64876190Y-62981904D01*
X64971428Y-62934285D01*
X65161904Y-62934285D01*
X65257142Y-62981904D01*
X65304761Y-63029523D01*
X65352380Y-63124761D01*
X65352380Y-63315238D01*
X65304761Y-63410476D01*
X65257142Y-63458095D01*
X65161904Y-63505714D01*
X64971428Y-63505714D01*
X64876190Y-63458095D01*
X64828571Y-63410476D01*
X64780952Y-63315238D01*
%TO.C,R1*%
X90052380Y-57633333D02*
X89576190Y-57300000D01*
X90052380Y-57061904D02*
X89052380Y-57061904D01*
X89052380Y-57442857D01*
X89100000Y-57538095D01*
X89147619Y-57585714D01*
X89242857Y-57633333D01*
X89385714Y-57633333D01*
X89480952Y-57585714D01*
X89528571Y-57538095D01*
X89576190Y-57442857D01*
X89576190Y-57061904D01*
X90052380Y-58585714D02*
X90052380Y-58014285D01*
X90052380Y-58300000D02*
X89052380Y-58300000D01*
X89195238Y-58204761D01*
X89290476Y-58109523D01*
X89338095Y-58014285D01*
%TO.C,D2*%
X114938095Y-32652380D02*
X114938095Y-31652380D01*
X114700000Y-31652380D01*
X114557142Y-31700000D01*
X114461904Y-31795238D01*
X114414285Y-31890476D01*
X114366666Y-32080952D01*
X114366666Y-32223809D01*
X114414285Y-32414285D01*
X114461904Y-32509523D01*
X114557142Y-32604761D01*
X114700000Y-32652380D01*
X114938095Y-32652380D01*
X113985714Y-31747619D02*
X113938095Y-31700000D01*
X113842857Y-31652380D01*
X113604761Y-31652380D01*
X113509523Y-31700000D01*
X113461904Y-31747619D01*
X113414285Y-31842857D01*
X113414285Y-31938095D01*
X113461904Y-32080952D01*
X114033333Y-32652380D01*
X113414285Y-32652380D01*
X117261904Y-30252380D02*
X117261904Y-29252380D01*
X116690476Y-30252380D02*
X117119047Y-29680952D01*
X116690476Y-29252380D02*
X117261904Y-29823809D01*
D11*
%TO.C,R2*%
X82800000Y-49160000D02*
X82800000Y-49930000D01*
X81430000Y-49930000D02*
X84170000Y-49930000D01*
X84170000Y-49930000D02*
X84170000Y-56470000D01*
X84170000Y-56470000D02*
X81430000Y-56470000D01*
X81430000Y-56470000D02*
X81430000Y-49930000D01*
X82800000Y-57240000D02*
X82800000Y-56470000D01*
%TO.C,D1*%
X111750000Y-43510000D02*
X111750000Y-44530000D01*
X113220000Y-49970000D02*
X110280000Y-49970000D01*
X113220000Y-44530000D02*
X113220000Y-49970000D01*
X113220000Y-48950000D02*
X110280000Y-48950000D01*
X113220000Y-49190000D02*
X110280000Y-49190000D01*
X113220000Y-49070000D02*
X110280000Y-49070000D01*
X110280000Y-49970000D02*
X110280000Y-44530000D01*
X110280000Y-44530000D02*
X113220000Y-44530000D01*
X111750000Y-50990000D02*
X111750000Y-49970000D01*
%TO.C,C11*%
X102820000Y-83320000D02*
X102820000Y-75580000D01*
X102820000Y-75580000D02*
X101456000Y-75580000D01*
X97580000Y-83320000D02*
X97580000Y-75580000D01*
X98944000Y-75580000D02*
X97580000Y-75580000D01*
X98944000Y-83320000D02*
X97580000Y-83320000D01*
X102820000Y-83320000D02*
X101456000Y-83320000D01*
%TO.C,U2*%
X72340000Y-44270000D02*
X73990000Y-44270000D01*
X69850000Y-44210000D02*
X80130000Y-44210000D01*
X77640000Y-44270000D02*
X77640000Y-54550000D01*
X80130000Y-54610000D02*
X69850000Y-54610000D01*
X72340000Y-54550000D02*
X72340000Y-44270000D01*
X80130000Y-44210000D02*
X80130000Y-54610000D01*
X75990000Y-44270000D02*
X77640000Y-44270000D01*
X69850000Y-54610000D02*
X69850000Y-44210000D01*
X77640000Y-54550000D02*
X72340000Y-54550000D01*
X73990000Y-44270000D02*
G75*
G03*
X75990000Y-44270000I1000000J0D01*
G01*
%TO.C,R7*%
X93630000Y-67990000D02*
X93630000Y-61450000D01*
X96370000Y-61450000D02*
X96370000Y-67990000D01*
X96370000Y-67990000D02*
X93630000Y-67990000D01*
X93630000Y-61450000D02*
X96370000Y-61450000D01*
X95000000Y-60680000D02*
X95000000Y-61450000D01*
X95000000Y-68760000D02*
X95000000Y-67990000D01*
%TO.C,C1*%
X117130000Y-58620000D02*
X117130000Y-57256000D01*
X117130000Y-58620000D02*
X124870000Y-58620000D01*
X117130000Y-53380000D02*
X124870000Y-53380000D01*
X124870000Y-54744000D02*
X124870000Y-53380000D01*
X124870000Y-58620000D02*
X124870000Y-57256000D01*
X117130000Y-54744000D02*
X117130000Y-53380000D01*
%TO.C,C3*%
X78870000Y-42770000D02*
X78870000Y-41406000D01*
X71130000Y-37530000D02*
X78870000Y-37530000D01*
X71130000Y-38894000D02*
X71130000Y-37530000D01*
X71130000Y-42770000D02*
X71130000Y-41406000D01*
X78870000Y-38894000D02*
X78870000Y-37530000D01*
X71130000Y-42770000D02*
X78870000Y-42770000D01*
%TO.C,C4*%
X78870000Y-56530000D02*
X78870000Y-57894000D01*
X78870000Y-61770000D02*
X71130000Y-61770000D01*
X78870000Y-56530000D02*
X71130000Y-56530000D01*
X78870000Y-60406000D02*
X78870000Y-61770000D01*
X71130000Y-60406000D02*
X71130000Y-61770000D01*
X71130000Y-56530000D02*
X71130000Y-57894000D01*
%TO.C,C2*%
X124870000Y-36244000D02*
X124870000Y-34880000D01*
X117130000Y-40120000D02*
X124870000Y-40120000D01*
X117130000Y-36244000D02*
X117130000Y-34880000D01*
X124870000Y-40120000D02*
X124870000Y-38756000D01*
X117130000Y-40120000D02*
X117130000Y-38756000D01*
X117130000Y-34880000D02*
X124870000Y-34880000D01*
%TO.C,U1*%
X136830000Y-52370000D02*
X120940000Y-52370000D01*
X120940000Y-49790000D02*
X118400000Y-49790000D01*
X136830000Y-42130000D02*
X120940000Y-42130000D01*
X120940000Y-44710000D02*
X118400000Y-44710000D01*
X136830000Y-52370000D02*
X136830000Y-42130000D01*
X120940000Y-47250000D02*
X118400000Y-47250000D01*
X120940000Y-52370000D02*
X120940000Y-42130000D01*
%TO.C,R6*%
X57480000Y-47800000D02*
X58250000Y-47800000D01*
X64790000Y-46430000D02*
X64790000Y-49170000D01*
X64790000Y-49170000D02*
X58250000Y-49170000D01*
X58250000Y-46430000D02*
X64790000Y-46430000D01*
X58250000Y-49170000D02*
X58250000Y-46430000D01*
X65560000Y-47800000D02*
X64790000Y-47800000D01*
%TO.C,R4*%
X75000000Y-74920000D02*
X75000000Y-74150000D01*
X75000000Y-66840000D02*
X75000000Y-67610000D01*
X76370000Y-67610000D02*
X76370000Y-74150000D01*
X76370000Y-74150000D02*
X73630000Y-74150000D01*
X73630000Y-74150000D02*
X73630000Y-67610000D01*
X73630000Y-67610000D02*
X76370000Y-67610000D01*
%TO.C,C8*%
X66720000Y-43656000D02*
X66720000Y-45020000D01*
X58980000Y-43656000D02*
X58980000Y-45020000D01*
X66720000Y-39780000D02*
X66720000Y-41144000D01*
X66720000Y-45020000D02*
X58980000Y-45020000D01*
X58980000Y-39780000D02*
X58980000Y-41144000D01*
X66720000Y-39780000D02*
X58980000Y-39780000D01*
%TO.C,R10*%
X66770000Y-74850000D02*
X66770000Y-81390000D01*
X65400000Y-74080000D02*
X65400000Y-74850000D01*
X66770000Y-81390000D02*
X64030000Y-81390000D01*
X64030000Y-81390000D02*
X64030000Y-74850000D01*
X65400000Y-82160000D02*
X65400000Y-81390000D01*
X64030000Y-74850000D02*
X66770000Y-74850000D01*
%TO.C,R3*%
X95470000Y-40830000D02*
X95470000Y-43570000D01*
X88930000Y-43570000D02*
X88930000Y-40830000D01*
X88930000Y-40830000D02*
X95470000Y-40830000D01*
X88160000Y-42200000D02*
X88930000Y-42200000D01*
X95470000Y-43570000D02*
X88930000Y-43570000D01*
X96240000Y-42200000D02*
X95470000Y-42200000D01*
%TO.C,R5*%
X57480000Y-52000000D02*
X58250000Y-52000000D01*
X64790000Y-50630000D02*
X64790000Y-53370000D01*
X58250000Y-53370000D02*
X58250000Y-50630000D01*
X65560000Y-52000000D02*
X64790000Y-52000000D01*
X58250000Y-50630000D02*
X64790000Y-50630000D01*
X64790000Y-53370000D02*
X58250000Y-53370000D01*
%TO.C,R9*%
X95000000Y-74080000D02*
X95000000Y-74850000D01*
X93630000Y-81390000D02*
X93630000Y-74850000D01*
X96370000Y-81390000D02*
X93630000Y-81390000D01*
X95000000Y-82160000D02*
X95000000Y-81390000D01*
X93630000Y-74850000D02*
X96370000Y-74850000D01*
X96370000Y-74850000D02*
X96370000Y-81390000D01*
%TO.C,C12*%
X62620000Y-83320000D02*
X61256000Y-83320000D01*
X58744000Y-83320000D02*
X57380000Y-83320000D01*
X58744000Y-75580000D02*
X57380000Y-75580000D01*
X57380000Y-83320000D02*
X57380000Y-75580000D01*
X62620000Y-83320000D02*
X62620000Y-75580000D01*
X62620000Y-75580000D02*
X61256000Y-75580000D01*
%TO.C,C10*%
X62620000Y-69920000D02*
X62620000Y-62180000D01*
X62620000Y-62180000D02*
X61256000Y-62180000D01*
X58744000Y-69920000D02*
X57380000Y-69920000D01*
X62620000Y-69920000D02*
X61256000Y-69920000D01*
X57380000Y-69920000D02*
X57380000Y-62180000D01*
X58744000Y-62180000D02*
X57380000Y-62180000D01*
%TO.C,C5*%
X94820000Y-49456000D02*
X94820000Y-50820000D01*
X94820000Y-45580000D02*
X87080000Y-45580000D01*
X87080000Y-45580000D02*
X87080000Y-46944000D01*
X94820000Y-50820000D02*
X87080000Y-50820000D01*
X94820000Y-45580000D02*
X94820000Y-46944000D01*
X87080000Y-49456000D02*
X87080000Y-50820000D01*
%TO.C,C9*%
X102820000Y-62180000D02*
X101456000Y-62180000D01*
X98944000Y-69920000D02*
X97580000Y-69920000D01*
X97580000Y-69920000D02*
X97580000Y-62180000D01*
X102820000Y-69920000D02*
X102820000Y-62180000D01*
X102820000Y-69920000D02*
X101456000Y-69920000D01*
X98944000Y-62180000D02*
X97580000Y-62180000D01*
%TO.C,R8*%
X65400000Y-68760000D02*
X65400000Y-67990000D01*
X65400000Y-60680000D02*
X65400000Y-61450000D01*
X66770000Y-61450000D02*
X66770000Y-67990000D01*
X66770000Y-67990000D02*
X64030000Y-67990000D01*
X64030000Y-61450000D02*
X66770000Y-61450000D01*
X64030000Y-67990000D02*
X64030000Y-61450000D01*
%TO.C,R1*%
X90370000Y-56650000D02*
X90370000Y-63190000D01*
X87630000Y-63190000D02*
X87630000Y-56650000D01*
X89000000Y-55880000D02*
X89000000Y-56650000D01*
X89000000Y-63960000D02*
X89000000Y-63190000D01*
X90370000Y-63190000D02*
X87630000Y-63190000D01*
X87630000Y-56650000D02*
X90370000Y-56650000D01*
%TO.C,D2*%
X118540000Y-32200000D02*
X119560000Y-32200000D01*
X120340000Y-33670000D02*
X120340000Y-30730000D01*
X120580000Y-33670000D02*
X120580000Y-30730000D01*
X126020000Y-32200000D02*
X125000000Y-32200000D01*
X125000000Y-33670000D02*
X119560000Y-33670000D01*
X119560000Y-33670000D02*
X119560000Y-30730000D01*
X119560000Y-30730000D02*
X125000000Y-30730000D01*
X120460000Y-33670000D02*
X120460000Y-30730000D01*
X125000000Y-30730000D02*
X125000000Y-33670000D01*
%TD*%
%LPC*%
D12*
%TO.C,R2*%
X82800000Y-48120000D03*
D13*
X82800000Y-58280000D03*
%TD*%
D14*
%TO.C,J1*%
X125200000Y-93000000D03*
D15*
X125200000Y-98080000D03*
%TD*%
D16*
%TO.C,J3*%
X95000000Y-90000000D03*
D17*
X97540000Y-87460000D03*
X97540000Y-92540000D03*
X92460000Y-92540000D03*
X92460000Y-87460000D03*
%TD*%
D16*
%TO.C,J5*%
X60000000Y-90000000D03*
D17*
X62540000Y-87460000D03*
X62540000Y-92540000D03*
X57460000Y-92540000D03*
X57460000Y-87460000D03*
%TD*%
D18*
%TO.C,H1*%
X135409010Y-26409010D03*
X138590990Y-26409010D03*
X135409010Y-29590990D03*
X134750000Y-28000000D03*
D19*
X137000000Y-28000000D03*
D18*
X139250000Y-28000000D03*
X137000000Y-25750000D03*
X137000000Y-30250000D03*
X138590990Y-29590990D03*
%TD*%
%TO.C,H3*%
X53000000Y-25750000D03*
X54590990Y-29590990D03*
D19*
X53000000Y-28000000D03*
D18*
X50750000Y-28000000D03*
X51409010Y-29590990D03*
X51409010Y-26409010D03*
X54590990Y-26409010D03*
X53000000Y-30250000D03*
X55250000Y-28000000D03*
%TD*%
D16*
%TO.C,J4*%
X75000000Y-98000000D03*
D17*
X72460000Y-95460000D03*
X77540000Y-95460000D03*
X72460000Y-100540000D03*
X77540000Y-100540000D03*
%TD*%
D16*
%TO.C,J2*%
X110000000Y-98000000D03*
D17*
X107460000Y-95460000D03*
X107460000Y-100540000D03*
X112540000Y-95460000D03*
X112540000Y-100540000D03*
%TD*%
D18*
%TO.C,H4*%
X51409010Y-83590990D03*
X55250000Y-82000000D03*
X51409010Y-80409010D03*
X53000000Y-79750000D03*
D19*
X53000000Y-82000000D03*
D18*
X54590990Y-80409010D03*
X50750000Y-82000000D03*
X53000000Y-84250000D03*
X54590990Y-83590990D03*
%TD*%
%TO.C,H2*%
X139250000Y-82000000D03*
X137000000Y-84250000D03*
X138590990Y-80409010D03*
X135409010Y-80409010D03*
X135409010Y-83590990D03*
X138590990Y-83590990D03*
X137000000Y-79750000D03*
D19*
X137000000Y-82000000D03*
D18*
X134750000Y-82000000D03*
%TD*%
D20*
%TO.C,D1*%
X111750000Y-52330000D03*
D21*
X111750000Y-42170000D03*
%TD*%
D22*
%TO.C,C11*%
X100200000Y-83200000D03*
X100200000Y-75700000D03*
%TD*%
D23*
%TO.C,U2*%
X78800000Y-45600000D03*
D13*
X78800000Y-48140000D03*
X78800000Y-50680000D03*
X78800000Y-53220000D03*
X71180000Y-53220000D03*
X71180000Y-50680000D03*
X71180000Y-48140000D03*
X71180000Y-45600000D03*
%TD*%
D12*
%TO.C,R7*%
X95000000Y-59640000D03*
D13*
X95000000Y-69800000D03*
%TD*%
D22*
%TO.C,C1*%
X117250000Y-56000000D03*
X124750000Y-56000000D03*
%TD*%
%TO.C,C3*%
X71250000Y-40150000D03*
X78750000Y-40150000D03*
%TD*%
%TO.C,C4*%
X78750000Y-59150000D03*
X71250000Y-59150000D03*
%TD*%
%TO.C,C2*%
X117250000Y-37500000D03*
X124750000Y-37500000D03*
%TD*%
D24*
%TO.C,U1*%
X133910000Y-47250000D03*
D25*
X117250000Y-49790000D03*
D26*
X117250000Y-47250000D03*
X117250000Y-44710000D03*
%TD*%
D12*
%TO.C,R6*%
X66600000Y-47800000D03*
D13*
X56440000Y-47800000D03*
%TD*%
D12*
%TO.C,R4*%
X75000000Y-75960000D03*
D13*
X75000000Y-65800000D03*
%TD*%
D22*
%TO.C,C8*%
X66600000Y-42400000D03*
X59100000Y-42400000D03*
%TD*%
D12*
%TO.C,R10*%
X65400000Y-73040000D03*
D13*
X65400000Y-83200000D03*
%TD*%
D12*
%TO.C,R3*%
X97280000Y-42200000D03*
D13*
X87120000Y-42200000D03*
%TD*%
D12*
%TO.C,R5*%
X56440000Y-52000000D03*
D13*
X66600000Y-52000000D03*
%TD*%
D12*
%TO.C,R9*%
X95000000Y-73040000D03*
D13*
X95000000Y-83200000D03*
%TD*%
D22*
%TO.C,C12*%
X60000000Y-83200000D03*
X60000000Y-75700000D03*
%TD*%
%TO.C,C10*%
X60000000Y-69800000D03*
X60000000Y-62300000D03*
%TD*%
%TO.C,C5*%
X94700000Y-48200000D03*
X87200000Y-48200000D03*
%TD*%
%TO.C,C9*%
X100200000Y-69800000D03*
X100200000Y-62300000D03*
%TD*%
D12*
%TO.C,R8*%
X65400000Y-59640000D03*
D13*
X65400000Y-69800000D03*
%TD*%
D12*
%TO.C,R1*%
X89000000Y-65000000D03*
D13*
X89000000Y-54840000D03*
%TD*%
D20*
%TO.C,D2*%
X117200000Y-32200000D03*
D21*
X127360000Y-32200000D03*
%TD*%
M02*
