%TF.GenerationSoftware,KiCad,Pcbnew,(6.0.11)*%
%TF.CreationDate,2023-02-06T13:49:00-06:00*%
%TF.ProjectId,InterferometerElectronics,496e7465-7266-4657-926f-6d6574657245,rev?*%
%TF.SameCoordinates,Original*%
%TF.FileFunction,Soldermask,Bot*%
%TF.FilePolarity,Negative*%
%FSLAX46Y46*%
G04 Gerber Fmt 4.6, Leading zero omitted, Abs format (unit mm)*
G04 Created by KiCad (PCBNEW (6.0.11)) date 2023-02-06 13:49:00*
%MOMM*%
%LPD*%
G01*
G04 APERTURE LIST*
G04 Aperture macros list*
%AMRoundRect*
0 Rectangle with rounded corners*
0 $1 Rounding radius*
0 $2 $3 $4 $5 $6 $7 $8 $9 X,Y pos of 4 corners*
0 Add a 4 corners polygon primitive as box body*
4,1,4,$2,$3,$4,$5,$6,$7,$8,$9,$2,$3,0*
0 Add four circle primitives for the rounded corners*
1,1,$1+$1,$2,$3*
1,1,$1+$1,$4,$5*
1,1,$1+$1,$6,$7*
1,1,$1+$1,$8,$9*
0 Add four rect primitives between the rounded corners*
20,1,$1+$1,$2,$3,$4,$5,0*
20,1,$1+$1,$4,$5,$6,$7,0*
20,1,$1+$1,$6,$7,$8,$9,0*
20,1,$1+$1,$8,$9,$2,$3,0*%
G04 Aperture macros list end*
%ADD10C,1.600000*%
%ADD11O,1.600000X1.600000*%
%ADD12RoundRect,0.250000X-1.550000X0.650000X-1.550000X-0.650000X1.550000X-0.650000X1.550000X0.650000X0*%
%ADD13O,3.600000X1.800000*%
%ADD14C,2.050000*%
%ADD15C,2.250000*%
%ADD16C,0.800000*%
%ADD17C,6.000000*%
%ADD18R,2.200000X2.200000*%
%ADD19O,2.200000X2.200000*%
%ADD20C,2.000000*%
%ADD21R,1.600000X1.600000*%
%ADD22O,3.500000X3.500000*%
%ADD23R,2.000000X1.905000*%
%ADD24O,2.000000X1.905000*%
G04 APERTURE END LIST*
D10*
%TO.C,R2*%
X82800000Y-48120000D03*
D11*
X82800000Y-58280000D03*
%TD*%
D12*
%TO.C,J1*%
X125200000Y-93000000D03*
D13*
X125200000Y-98080000D03*
%TD*%
D14*
%TO.C,J3*%
X95000000Y-90000000D03*
D15*
X97540000Y-87460000D03*
X97540000Y-92540000D03*
X92460000Y-92540000D03*
X92460000Y-87460000D03*
%TD*%
D14*
%TO.C,J5*%
X60000000Y-90000000D03*
D15*
X62540000Y-87460000D03*
X62540000Y-92540000D03*
X57460000Y-92540000D03*
X57460000Y-87460000D03*
%TD*%
D16*
%TO.C,H1*%
X135409010Y-26409010D03*
X138590990Y-26409010D03*
X135409010Y-29590990D03*
X134750000Y-28000000D03*
D17*
X137000000Y-28000000D03*
D16*
X139250000Y-28000000D03*
X137000000Y-25750000D03*
X137000000Y-30250000D03*
X138590990Y-29590990D03*
%TD*%
%TO.C,H3*%
X53000000Y-25750000D03*
X54590990Y-29590990D03*
D17*
X53000000Y-28000000D03*
D16*
X50750000Y-28000000D03*
X51409010Y-29590990D03*
X51409010Y-26409010D03*
X54590990Y-26409010D03*
X53000000Y-30250000D03*
X55250000Y-28000000D03*
%TD*%
D14*
%TO.C,J4*%
X75000000Y-98000000D03*
D15*
X72460000Y-95460000D03*
X77540000Y-95460000D03*
X72460000Y-100540000D03*
X77540000Y-100540000D03*
%TD*%
D14*
%TO.C,J2*%
X110000000Y-98000000D03*
D15*
X107460000Y-95460000D03*
X107460000Y-100540000D03*
X112540000Y-95460000D03*
X112540000Y-100540000D03*
%TD*%
D16*
%TO.C,H4*%
X51409010Y-83590990D03*
X55250000Y-82000000D03*
X51409010Y-80409010D03*
X53000000Y-79750000D03*
D17*
X53000000Y-82000000D03*
D16*
X54590990Y-80409010D03*
X50750000Y-82000000D03*
X53000000Y-84250000D03*
X54590990Y-83590990D03*
%TD*%
%TO.C,H2*%
X139250000Y-82000000D03*
X137000000Y-84250000D03*
X138590990Y-80409010D03*
X135409010Y-80409010D03*
X135409010Y-83590990D03*
X138590990Y-83590990D03*
X137000000Y-79750000D03*
D17*
X137000000Y-82000000D03*
D16*
X134750000Y-82000000D03*
%TD*%
D18*
%TO.C,D1*%
X111750000Y-52330000D03*
D19*
X111750000Y-42170000D03*
%TD*%
D20*
%TO.C,C11*%
X100200000Y-83200000D03*
X100200000Y-75700000D03*
%TD*%
D21*
%TO.C,U2*%
X78800000Y-45600000D03*
D11*
X78800000Y-48140000D03*
X78800000Y-50680000D03*
X78800000Y-53220000D03*
X71180000Y-53220000D03*
X71180000Y-50680000D03*
X71180000Y-48140000D03*
X71180000Y-45600000D03*
%TD*%
D10*
%TO.C,R7*%
X95000000Y-59640000D03*
D11*
X95000000Y-69800000D03*
%TD*%
D20*
%TO.C,C1*%
X117250000Y-56000000D03*
X124750000Y-56000000D03*
%TD*%
%TO.C,C3*%
X71250000Y-40150000D03*
X78750000Y-40150000D03*
%TD*%
%TO.C,C4*%
X78750000Y-59150000D03*
X71250000Y-59150000D03*
%TD*%
%TO.C,C2*%
X117250000Y-37500000D03*
X124750000Y-37500000D03*
%TD*%
D22*
%TO.C,U1*%
X133910000Y-47250000D03*
D23*
X117250000Y-49790000D03*
D24*
X117250000Y-47250000D03*
X117250000Y-44710000D03*
%TD*%
D10*
%TO.C,R6*%
X66600000Y-47800000D03*
D11*
X56440000Y-47800000D03*
%TD*%
D10*
%TO.C,R4*%
X75000000Y-75960000D03*
D11*
X75000000Y-65800000D03*
%TD*%
D20*
%TO.C,C8*%
X66600000Y-42400000D03*
X59100000Y-42400000D03*
%TD*%
D10*
%TO.C,R10*%
X65400000Y-73040000D03*
D11*
X65400000Y-83200000D03*
%TD*%
D10*
%TO.C,R3*%
X97280000Y-42200000D03*
D11*
X87120000Y-42200000D03*
%TD*%
D10*
%TO.C,R5*%
X56440000Y-52000000D03*
D11*
X66600000Y-52000000D03*
%TD*%
D10*
%TO.C,R9*%
X95000000Y-73040000D03*
D11*
X95000000Y-83200000D03*
%TD*%
D20*
%TO.C,C12*%
X60000000Y-83200000D03*
X60000000Y-75700000D03*
%TD*%
%TO.C,C10*%
X60000000Y-69800000D03*
X60000000Y-62300000D03*
%TD*%
%TO.C,C5*%
X94700000Y-48200000D03*
X87200000Y-48200000D03*
%TD*%
%TO.C,C9*%
X100200000Y-69800000D03*
X100200000Y-62300000D03*
%TD*%
D10*
%TO.C,R8*%
X65400000Y-59640000D03*
D11*
X65400000Y-69800000D03*
%TD*%
D10*
%TO.C,R1*%
X89000000Y-65000000D03*
D11*
X89000000Y-54840000D03*
%TD*%
D18*
%TO.C,D2*%
X117200000Y-32200000D03*
D19*
X127360000Y-32200000D03*
%TD*%
M02*
