M48
; DRILL file {KiCad (6.0.11)} date Mon 06 Feb 2023 01:50:08 PM CST
; FORMAT={-:-/ absolute / metric / decimal}
; #@! TF.CreationDate,2023-02-06T13:50:08-06:00
; #@! TF.GenerationSoftware,Kicad,Pcbnew,(6.0.11)
; #@! TF.FileFunction,Plated,1,2,PTH
FMAT,2
METRIC
; #@! TA.AperFunction,Plated,PTH,ComponentDrill
T1C0.500
; #@! TA.AperFunction,Plated,PTH,ComponentDrill
T2C0.800
; #@! TA.AperFunction,Plated,PTH,ComponentDrill
T3C1.000
; #@! TA.AperFunction,Plated,PTH,ComponentDrill
T4C1.100
; #@! TA.AperFunction,Plated,PTH,ComponentDrill
T5C1.200
; #@! TA.AperFunction,Plated,PTH,ComponentDrill
T6C1.500
; #@! TA.AperFunction,Plated,PTH,ComponentDrill
T7C1.700
; #@! TA.AperFunction,Plated,PTH,ComponentDrill
T8C3.000
%
G90
G05
T1
X50.75Y-28.0
X50.75Y-82.0
X51.409Y-26.409
X51.409Y-29.591
X51.409Y-80.409
X51.409Y-83.591
X53.0Y-25.75
X53.0Y-30.25
X53.0Y-79.75
X53.0Y-84.25
X54.591Y-26.409
X54.591Y-29.591
X54.591Y-80.409
X54.591Y-83.591
X55.25Y-28.0
X55.25Y-82.0
X134.75Y-28.0
X134.75Y-82.0
X135.409Y-26.409
X135.409Y-29.591
X135.409Y-80.409
X135.409Y-83.591
X137.0Y-25.75
X137.0Y-30.25
X137.0Y-79.75
X137.0Y-84.25
X138.591Y-26.409
X138.591Y-29.591
X138.591Y-80.409
X138.591Y-83.591
X139.25Y-28.0
X139.25Y-82.0
T2
X56.44Y-47.8
X56.44Y-52.0
X65.4Y-59.64
X65.4Y-69.8
X65.4Y-73.04
X65.4Y-83.2
X66.6Y-47.8
X66.6Y-52.0
X71.18Y-45.6
X71.18Y-48.14
X71.18Y-50.68
X71.18Y-53.22
X75.0Y-65.8
X75.0Y-75.96
X78.8Y-45.6
X78.8Y-48.14
X78.8Y-50.68
X78.8Y-53.22
X82.8Y-48.12
X82.8Y-58.28
X87.12Y-42.2
X89.0Y-54.84
X89.0Y-65.0
X95.0Y-59.64
X95.0Y-69.8
X95.0Y-73.04
X95.0Y-83.2
X97.28Y-42.2
T3
X59.1Y-42.4
X60.0Y-62.3
X60.0Y-69.8
X60.0Y-75.7
X60.0Y-83.2
X66.6Y-42.4
X71.25Y-40.15
X71.25Y-59.15
X78.75Y-40.15
X78.75Y-59.15
X87.2Y-48.2
X94.7Y-48.2
X100.2Y-62.3
X100.2Y-69.8
X100.2Y-75.7
X100.2Y-83.2
X117.25Y-37.5
X117.25Y-56.0
X124.75Y-37.5
X124.75Y-56.0
T4
X111.75Y-42.17
X111.75Y-52.33
X117.2Y-32.2
X117.25Y-44.71
X117.25Y-47.25
X117.25Y-49.79
X127.36Y-32.2
T5
X125.2Y-93.0
X125.2Y-98.08
T6
X60.0Y-90.0
X75.0Y-98.0
X95.0Y-90.0
X110.0Y-98.0
T7
X57.46Y-87.46
X57.46Y-92.54
X62.54Y-87.46
X62.54Y-92.54
X72.46Y-95.46
X72.46Y-100.54
X77.54Y-95.46
X77.54Y-100.54
X92.46Y-87.46
X92.46Y-92.54
X97.54Y-87.46
X97.54Y-92.54
X107.46Y-95.46
X107.46Y-100.54
X112.54Y-95.46
X112.54Y-100.54
T8
X53.0Y-28.0
X53.0Y-82.0
X137.0Y-28.0
X137.0Y-82.0
T0
M30
