%TF.GenerationSoftware,KiCad,Pcbnew,(6.0.11)*%
%TF.CreationDate,2023-02-06T13:48:51-06:00*%
%TF.ProjectId,InterferometerElectronics,496e7465-7266-4657-926f-6d6574657245,rev?*%
%TF.SameCoordinates,Original*%
%TF.FileFunction,Legend,Top*%
%TF.FilePolarity,Positive*%
%FSLAX46Y46*%
G04 Gerber Fmt 4.6, Leading zero omitted, Abs format (unit mm)*
G04 Created by KiCad (PCBNEW (6.0.11)) date 2023-02-06 13:48:51*
%MOMM*%
%LPD*%
G01*
G04 APERTURE LIST*
G04 Aperture macros list*
%AMRoundRect*
0 Rectangle with rounded corners*
0 $1 Rounding radius*
0 $2 $3 $4 $5 $6 $7 $8 $9 X,Y pos of 4 corners*
0 Add a 4 corners polygon primitive as box body*
4,1,4,$2,$3,$4,$5,$6,$7,$8,$9,$2,$3,0*
0 Add four circle primitives for the rounded corners*
1,1,$1+$1,$2,$3*
1,1,$1+$1,$4,$5*
1,1,$1+$1,$6,$7*
1,1,$1+$1,$8,$9*
0 Add four rect primitives between the rounded corners*
20,1,$1+$1,$2,$3,$4,$5,0*
20,1,$1+$1,$4,$5,$6,$7,0*
20,1,$1+$1,$6,$7,$8,$9,0*
20,1,$1+$1,$8,$9,$2,$3,0*%
G04 Aperture macros list end*
%ADD10C,0.150000*%
%ADD11C,0.300000*%
%ADD12C,0.120000*%
%ADD13C,1.600000*%
%ADD14O,1.600000X1.600000*%
%ADD15RoundRect,0.250000X-1.550000X0.650000X-1.550000X-0.650000X1.550000X-0.650000X1.550000X0.650000X0*%
%ADD16O,3.600000X1.800000*%
%ADD17C,2.050000*%
%ADD18C,2.250000*%
%ADD19C,0.800000*%
%ADD20C,6.000000*%
%ADD21R,2.200000X2.200000*%
%ADD22O,2.200000X2.200000*%
%ADD23C,2.000000*%
%ADD24R,1.600000X1.600000*%
%ADD25O,3.500000X3.500000*%
%ADD26R,2.000000X1.905000*%
%ADD27O,2.000000X1.905000*%
G04 APERTURE END LIST*
D10*
X67621309Y-24647380D02*
X67621309Y-25361666D01*
X67573690Y-25504523D01*
X67478452Y-25599761D01*
X67335595Y-25647380D01*
X67240357Y-25647380D01*
X68240357Y-25647380D02*
X68145119Y-25599761D01*
X68097500Y-25552142D01*
X68049880Y-25456904D01*
X68049880Y-25171190D01*
X68097500Y-25075952D01*
X68145119Y-25028333D01*
X68240357Y-24980714D01*
X68383214Y-24980714D01*
X68478452Y-25028333D01*
X68526071Y-25075952D01*
X68573690Y-25171190D01*
X68573690Y-25456904D01*
X68526071Y-25552142D01*
X68478452Y-25599761D01*
X68383214Y-25647380D01*
X68240357Y-25647380D01*
X69002261Y-25647380D02*
X69002261Y-24647380D01*
X69430833Y-25647380D02*
X69430833Y-25123571D01*
X69383214Y-25028333D01*
X69287976Y-24980714D01*
X69145119Y-24980714D01*
X69049880Y-25028333D01*
X69002261Y-25075952D01*
X69907023Y-24980714D02*
X69907023Y-25647380D01*
X69907023Y-25075952D02*
X69954642Y-25028333D01*
X70049880Y-24980714D01*
X70192738Y-24980714D01*
X70287976Y-25028333D01*
X70335595Y-25123571D01*
X70335595Y-25647380D01*
X71573690Y-25647380D02*
X71573690Y-24647380D01*
X71811785Y-24647380D01*
X71954642Y-24695000D01*
X72049880Y-24790238D01*
X72097500Y-24885476D01*
X72145119Y-25075952D01*
X72145119Y-25218809D01*
X72097500Y-25409285D01*
X72049880Y-25504523D01*
X71954642Y-25599761D01*
X71811785Y-25647380D01*
X71573690Y-25647380D01*
X72954642Y-25599761D02*
X72859404Y-25647380D01*
X72668928Y-25647380D01*
X72573690Y-25599761D01*
X72526071Y-25504523D01*
X72526071Y-25123571D01*
X72573690Y-25028333D01*
X72668928Y-24980714D01*
X72859404Y-24980714D01*
X72954642Y-25028333D01*
X73002261Y-25123571D01*
X73002261Y-25218809D01*
X72526071Y-25314047D01*
X73335595Y-24980714D02*
X73526071Y-25647380D01*
X73716547Y-25171190D01*
X73907023Y-25647380D01*
X74097500Y-24980714D01*
X74478452Y-25647380D02*
X74478452Y-24647380D01*
X74907023Y-25647380D02*
X74907023Y-25123571D01*
X74859404Y-25028333D01*
X74764166Y-24980714D01*
X74621309Y-24980714D01*
X74526071Y-25028333D01*
X74478452Y-25075952D01*
X75811785Y-24980714D02*
X75811785Y-25647380D01*
X75383214Y-24980714D02*
X75383214Y-25504523D01*
X75430833Y-25599761D01*
X75526071Y-25647380D01*
X75668928Y-25647380D01*
X75764166Y-25599761D01*
X75811785Y-25552142D01*
X76287976Y-25647380D02*
X76287976Y-24980714D01*
X76287976Y-25171190D02*
X76335595Y-25075952D01*
X76383214Y-25028333D01*
X76478452Y-24980714D01*
X76573690Y-24980714D01*
X76859404Y-25599761D02*
X76954642Y-25647380D01*
X77145119Y-25647380D01*
X77240357Y-25599761D01*
X77287976Y-25504523D01*
X77287976Y-25456904D01*
X77240357Y-25361666D01*
X77145119Y-25314047D01*
X77002261Y-25314047D01*
X76907023Y-25266428D01*
X76859404Y-25171190D01*
X76859404Y-25123571D01*
X76907023Y-25028333D01*
X77002261Y-24980714D01*
X77145119Y-24980714D01*
X77240357Y-25028333D01*
X77573690Y-24980714D02*
X77954642Y-24980714D01*
X77716547Y-24647380D02*
X77716547Y-25504523D01*
X77764166Y-25599761D01*
X77859404Y-25647380D01*
X77954642Y-25647380D01*
X68097500Y-26590714D02*
X67335595Y-26876428D01*
X68097500Y-27162142D01*
X68573690Y-26590714D02*
X68573690Y-27447857D01*
X68526071Y-27543095D01*
X68430833Y-27590714D01*
X68383214Y-27590714D01*
X68573690Y-26257380D02*
X68526071Y-26305000D01*
X68573690Y-26352619D01*
X68621309Y-26305000D01*
X68573690Y-26257380D01*
X68573690Y-26352619D01*
X69049880Y-27257380D02*
X69049880Y-26590714D01*
X69049880Y-26685952D02*
X69097500Y-26638333D01*
X69192738Y-26590714D01*
X69335595Y-26590714D01*
X69430833Y-26638333D01*
X69478452Y-26733571D01*
X69478452Y-27257380D01*
X69478452Y-26733571D02*
X69526071Y-26638333D01*
X69621309Y-26590714D01*
X69764166Y-26590714D01*
X69859404Y-26638333D01*
X69907023Y-26733571D01*
X69907023Y-27257380D01*
X70811785Y-27257380D02*
X70811785Y-26257380D01*
X70811785Y-27209761D02*
X70716547Y-27257380D01*
X70526071Y-27257380D01*
X70430833Y-27209761D01*
X70383214Y-27162142D01*
X70335595Y-27066904D01*
X70335595Y-26781190D01*
X70383214Y-26685952D01*
X70430833Y-26638333D01*
X70526071Y-26590714D01*
X70716547Y-26590714D01*
X70811785Y-26638333D01*
X71668928Y-27209761D02*
X71573690Y-27257380D01*
X71383214Y-27257380D01*
X71287976Y-27209761D01*
X71240357Y-27114523D01*
X71240357Y-26733571D01*
X71287976Y-26638333D01*
X71383214Y-26590714D01*
X71573690Y-26590714D01*
X71668928Y-26638333D01*
X71716547Y-26733571D01*
X71716547Y-26828809D01*
X71240357Y-26924047D01*
X72049880Y-26590714D02*
X72240357Y-27257380D01*
X72430833Y-26781190D01*
X72621309Y-27257380D01*
X72811785Y-26590714D01*
X73192738Y-27257380D02*
X73192738Y-26257380D01*
X73621309Y-27257380D02*
X73621309Y-26733571D01*
X73573690Y-26638333D01*
X73478452Y-26590714D01*
X73335595Y-26590714D01*
X73240357Y-26638333D01*
X73192738Y-26685952D01*
X74526071Y-26590714D02*
X74526071Y-27257380D01*
X74097500Y-26590714D02*
X74097500Y-27114523D01*
X74145119Y-27209761D01*
X74240357Y-27257380D01*
X74383214Y-27257380D01*
X74478452Y-27209761D01*
X74526071Y-27162142D01*
X75002261Y-27257380D02*
X75002261Y-26590714D01*
X75002261Y-26781190D02*
X75049880Y-26685952D01*
X75097500Y-26638333D01*
X75192738Y-26590714D01*
X75287976Y-26590714D01*
X75573690Y-27209761D02*
X75668928Y-27257380D01*
X75859404Y-27257380D01*
X75954642Y-27209761D01*
X76002261Y-27114523D01*
X76002261Y-27066904D01*
X75954642Y-26971666D01*
X75859404Y-26924047D01*
X75716547Y-26924047D01*
X75621309Y-26876428D01*
X75573690Y-26781190D01*
X75573690Y-26733571D01*
X75621309Y-26638333D01*
X75716547Y-26590714D01*
X75859404Y-26590714D01*
X75954642Y-26638333D01*
X76287976Y-26590714D02*
X76668928Y-26590714D01*
X76430833Y-26257380D02*
X76430833Y-27114523D01*
X76478452Y-27209761D01*
X76573690Y-27257380D01*
X76668928Y-27257380D01*
X77621309Y-26781190D02*
X77573690Y-26733571D01*
X77478452Y-26685952D01*
X77383214Y-26685952D01*
X77287976Y-26733571D01*
X77240357Y-26781190D01*
X77192738Y-26876428D01*
X77192738Y-26971666D01*
X77240357Y-27066904D01*
X77287976Y-27114523D01*
X77383214Y-27162142D01*
X77478452Y-27162142D01*
X77573690Y-27114523D01*
X77621309Y-27066904D01*
X77621309Y-26685952D02*
X77621309Y-27066904D01*
X77668928Y-27114523D01*
X77716547Y-27114523D01*
X77811785Y-27066904D01*
X77859404Y-26971666D01*
X77859404Y-26733571D01*
X77764166Y-26590714D01*
X77621309Y-26495476D01*
X77430833Y-26447857D01*
X77240357Y-26495476D01*
X77097500Y-26590714D01*
X77002261Y-26733571D01*
X76954642Y-26924047D01*
X77002261Y-27114523D01*
X77097500Y-27257380D01*
X77240357Y-27352619D01*
X77430833Y-27400238D01*
X77621309Y-27352619D01*
X77764166Y-27257380D01*
X78716547Y-26590714D02*
X78716547Y-27257380D01*
X78287976Y-26590714D02*
X78287976Y-27114523D01*
X78335595Y-27209761D01*
X78430833Y-27257380D01*
X78573690Y-27257380D01*
X78668928Y-27209761D01*
X78716547Y-27162142D01*
X79621309Y-27209761D02*
X79526071Y-27257380D01*
X79335595Y-27257380D01*
X79240357Y-27209761D01*
X79192738Y-27162142D01*
X79145119Y-27066904D01*
X79145119Y-26781190D01*
X79192738Y-26685952D01*
X79240357Y-26638333D01*
X79335595Y-26590714D01*
X79526071Y-26590714D01*
X79621309Y-26638333D01*
X80049880Y-27257380D02*
X80049880Y-26257380D01*
X80478452Y-27257380D02*
X80478452Y-26733571D01*
X80430833Y-26638333D01*
X80335595Y-26590714D01*
X80192738Y-26590714D01*
X80097500Y-26638333D01*
X80049880Y-26685952D01*
X80954642Y-27257380D02*
X80954642Y-26590714D01*
X80954642Y-26257380D02*
X80907023Y-26305000D01*
X80954642Y-26352619D01*
X81002261Y-26305000D01*
X80954642Y-26257380D01*
X80954642Y-26352619D01*
X81859404Y-27209761D02*
X81764166Y-27257380D01*
X81573690Y-27257380D01*
X81478452Y-27209761D01*
X81430833Y-27162142D01*
X81383214Y-27066904D01*
X81383214Y-26781190D01*
X81430833Y-26685952D01*
X81478452Y-26638333D01*
X81573690Y-26590714D01*
X81764166Y-26590714D01*
X81859404Y-26638333D01*
X82716547Y-27257380D02*
X82716547Y-26733571D01*
X82668928Y-26638333D01*
X82573690Y-26590714D01*
X82383214Y-26590714D01*
X82287976Y-26638333D01*
X82716547Y-27209761D02*
X82621309Y-27257380D01*
X82383214Y-27257380D01*
X82287976Y-27209761D01*
X82240357Y-27114523D01*
X82240357Y-27019285D01*
X82287976Y-26924047D01*
X82383214Y-26876428D01*
X82621309Y-26876428D01*
X82716547Y-26828809D01*
X83621309Y-26590714D02*
X83621309Y-27400238D01*
X83573690Y-27495476D01*
X83526071Y-27543095D01*
X83430833Y-27590714D01*
X83287976Y-27590714D01*
X83192738Y-27543095D01*
X83621309Y-27209761D02*
X83526071Y-27257380D01*
X83335595Y-27257380D01*
X83240357Y-27209761D01*
X83192738Y-27162142D01*
X83145119Y-27066904D01*
X83145119Y-26781190D01*
X83192738Y-26685952D01*
X83240357Y-26638333D01*
X83335595Y-26590714D01*
X83526071Y-26590714D01*
X83621309Y-26638333D01*
X84240357Y-27257380D02*
X84145119Y-27209761D01*
X84097500Y-27162142D01*
X84049880Y-27066904D01*
X84049880Y-26781190D01*
X84097500Y-26685952D01*
X84145119Y-26638333D01*
X84240357Y-26590714D01*
X84383214Y-26590714D01*
X84478452Y-26638333D01*
X84526071Y-26685952D01*
X84573690Y-26781190D01*
X84573690Y-27066904D01*
X84526071Y-27162142D01*
X84478452Y-27209761D01*
X84383214Y-27257380D01*
X84240357Y-27257380D01*
X85002261Y-27162142D02*
X85049880Y-27209761D01*
X85002261Y-27257380D01*
X84954642Y-27209761D01*
X85002261Y-27162142D01*
X85002261Y-27257380D01*
X85859404Y-27209761D02*
X85764166Y-27257380D01*
X85573690Y-27257380D01*
X85478452Y-27209761D01*
X85430833Y-27114523D01*
X85430833Y-26733571D01*
X85478452Y-26638333D01*
X85573690Y-26590714D01*
X85764166Y-26590714D01*
X85859404Y-26638333D01*
X85907023Y-26733571D01*
X85907023Y-26828809D01*
X85430833Y-26924047D01*
X86764166Y-27257380D02*
X86764166Y-26257380D01*
X86764166Y-27209761D02*
X86668928Y-27257380D01*
X86478452Y-27257380D01*
X86383214Y-27209761D01*
X86335595Y-27162142D01*
X86287976Y-27066904D01*
X86287976Y-26781190D01*
X86335595Y-26685952D01*
X86383214Y-26638333D01*
X86478452Y-26590714D01*
X86668928Y-26590714D01*
X86764166Y-26638333D01*
X87668928Y-26590714D02*
X87668928Y-27257380D01*
X87240357Y-26590714D02*
X87240357Y-27114523D01*
X87287976Y-27209761D01*
X87383214Y-27257380D01*
X87526071Y-27257380D01*
X87621309Y-27209761D01*
X87668928Y-27162142D01*
X88145119Y-26590714D02*
X88907023Y-26876428D01*
X88145119Y-27162142D01*
X132038095Y-97700000D02*
X131942857Y-97652380D01*
X131800000Y-97652380D01*
X131657142Y-97700000D01*
X131561904Y-97795238D01*
X131514285Y-97890476D01*
X131466666Y-98080952D01*
X131466666Y-98223809D01*
X131514285Y-98414285D01*
X131561904Y-98509523D01*
X131657142Y-98604761D01*
X131800000Y-98652380D01*
X131895238Y-98652380D01*
X132038095Y-98604761D01*
X132085714Y-98557142D01*
X132085714Y-98223809D01*
X131895238Y-98223809D01*
X132514285Y-98652380D02*
X132514285Y-97652380D01*
X133085714Y-98652380D01*
X133085714Y-97652380D01*
X133561904Y-98652380D02*
X133561904Y-97652380D01*
X133800000Y-97652380D01*
X133942857Y-97700000D01*
X134038095Y-97795238D01*
X134085714Y-97890476D01*
X134133333Y-98080952D01*
X134133333Y-98223809D01*
X134085714Y-98414285D01*
X134038095Y-98509523D01*
X133942857Y-98604761D01*
X133800000Y-98652380D01*
X133561904Y-98652380D01*
X53000000Y-28000000D02*
X137000000Y-28000000D01*
X137000000Y-28000000D02*
X137000000Y-82000000D01*
X137000000Y-82000000D02*
X53000000Y-82000000D01*
X53000000Y-82000000D02*
X53000000Y-28000000D01*
X64428571Y-101957142D02*
X64380952Y-102004761D01*
X64238095Y-102052380D01*
X64142857Y-102052380D01*
X64000000Y-102004761D01*
X63904761Y-101909523D01*
X63857142Y-101814285D01*
X63809523Y-101623809D01*
X63809523Y-101480952D01*
X63857142Y-101290476D01*
X63904761Y-101195238D01*
X64000000Y-101100000D01*
X64142857Y-101052380D01*
X64238095Y-101052380D01*
X64380952Y-101100000D01*
X64428571Y-101147619D01*
X64857142Y-102052380D02*
X64857142Y-101052380D01*
X64857142Y-101528571D02*
X65428571Y-101528571D01*
X65428571Y-102052380D02*
X65428571Y-101052380D01*
X66428571Y-102052380D02*
X65857142Y-102052380D01*
X66142857Y-102052380D02*
X66142857Y-101052380D01*
X66047619Y-101195238D01*
X65952380Y-101290476D01*
X65857142Y-101338095D01*
X68190476Y-102052380D02*
X67857142Y-101576190D01*
X67619047Y-102052380D02*
X67619047Y-101052380D01*
X68000000Y-101052380D01*
X68095238Y-101100000D01*
X68142857Y-101147619D01*
X68190476Y-101242857D01*
X68190476Y-101385714D01*
X68142857Y-101480952D01*
X68095238Y-101528571D01*
X68000000Y-101576190D01*
X67619047Y-101576190D01*
X68571428Y-101766666D02*
X69047619Y-101766666D01*
X68476190Y-102052380D02*
X68809523Y-101052380D01*
X69142857Y-102052380D01*
X69380952Y-101052380D02*
X69619047Y-102052380D01*
X69809523Y-101338095D01*
X70000000Y-102052380D01*
X70238095Y-101052380D01*
X90700000Y-96757142D02*
X90652380Y-96804761D01*
X90509523Y-96852380D01*
X90414285Y-96852380D01*
X90271428Y-96804761D01*
X90176190Y-96709523D01*
X90128571Y-96614285D01*
X90080952Y-96423809D01*
X90080952Y-96280952D01*
X90128571Y-96090476D01*
X90176190Y-95995238D01*
X90271428Y-95900000D01*
X90414285Y-95852380D01*
X90509523Y-95852380D01*
X90652380Y-95900000D01*
X90700000Y-95947619D01*
X91128571Y-96852380D02*
X91128571Y-95852380D01*
X91128571Y-96328571D02*
X91700000Y-96328571D01*
X91700000Y-96852380D02*
X91700000Y-95852380D01*
X92128571Y-95947619D02*
X92176190Y-95900000D01*
X92271428Y-95852380D01*
X92509523Y-95852380D01*
X92604761Y-95900000D01*
X92652380Y-95947619D01*
X92700000Y-96042857D01*
X92700000Y-96138095D01*
X92652380Y-96280952D01*
X92080952Y-96852380D01*
X92700000Y-96852380D01*
X94080952Y-95852380D02*
X94271428Y-95852380D01*
X94366666Y-95900000D01*
X94461904Y-95995238D01*
X94509523Y-96185714D01*
X94509523Y-96519047D01*
X94461904Y-96709523D01*
X94366666Y-96804761D01*
X94271428Y-96852380D01*
X94080952Y-96852380D01*
X93985714Y-96804761D01*
X93890476Y-96709523D01*
X93842857Y-96519047D01*
X93842857Y-96185714D01*
X93890476Y-95995238D01*
X93985714Y-95900000D01*
X94080952Y-95852380D01*
X94938095Y-95852380D02*
X94938095Y-96661904D01*
X94985714Y-96757142D01*
X95033333Y-96804761D01*
X95128571Y-96852380D01*
X95319047Y-96852380D01*
X95414285Y-96804761D01*
X95461904Y-96757142D01*
X95509523Y-96661904D01*
X95509523Y-95852380D01*
X95842857Y-95852380D02*
X96414285Y-95852380D01*
X96128571Y-96852380D02*
X96128571Y-95852380D01*
D11*
X68409285Y-30863571D02*
X67909285Y-30149285D01*
X67552142Y-30863571D02*
X67552142Y-29363571D01*
X68123571Y-29363571D01*
X68266428Y-29435000D01*
X68337857Y-29506428D01*
X68409285Y-29649285D01*
X68409285Y-29863571D01*
X68337857Y-30006428D01*
X68266428Y-30077857D01*
X68123571Y-30149285D01*
X67552142Y-30149285D01*
X69623571Y-30792142D02*
X69480714Y-30863571D01*
X69195000Y-30863571D01*
X69052142Y-30792142D01*
X68980714Y-30649285D01*
X68980714Y-30077857D01*
X69052142Y-29935000D01*
X69195000Y-29863571D01*
X69480714Y-29863571D01*
X69623571Y-29935000D01*
X69695000Y-30077857D01*
X69695000Y-30220714D01*
X68980714Y-30363571D01*
X70980714Y-30863571D02*
X70980714Y-29363571D01*
X70980714Y-30792142D02*
X70837857Y-30863571D01*
X70552142Y-30863571D01*
X70409285Y-30792142D01*
X70337857Y-30720714D01*
X70266428Y-30577857D01*
X70266428Y-30149285D01*
X70337857Y-30006428D01*
X70409285Y-29935000D01*
X70552142Y-29863571D01*
X70837857Y-29863571D01*
X70980714Y-29935000D01*
X72837857Y-30863571D02*
X72837857Y-29363571D01*
X73409285Y-29363571D01*
X73552142Y-29435000D01*
X73623571Y-29506428D01*
X73695000Y-29649285D01*
X73695000Y-29863571D01*
X73623571Y-30006428D01*
X73552142Y-30077857D01*
X73409285Y-30149285D01*
X72837857Y-30149285D01*
X74337857Y-30863571D02*
X74337857Y-29863571D01*
X74337857Y-29363571D02*
X74266428Y-29435000D01*
X74337857Y-29506428D01*
X74409285Y-29435000D01*
X74337857Y-29363571D01*
X74337857Y-29506428D01*
X74837857Y-29863571D02*
X75409285Y-29863571D01*
X75052142Y-29363571D02*
X75052142Y-30649285D01*
X75123571Y-30792142D01*
X75266428Y-30863571D01*
X75409285Y-30863571D01*
X76552142Y-30863571D02*
X76552142Y-30077857D01*
X76480714Y-29935000D01*
X76337857Y-29863571D01*
X76052142Y-29863571D01*
X75909285Y-29935000D01*
X76552142Y-30792142D02*
X76409285Y-30863571D01*
X76052142Y-30863571D01*
X75909285Y-30792142D01*
X75837857Y-30649285D01*
X75837857Y-30506428D01*
X75909285Y-30363571D01*
X76052142Y-30292142D01*
X76409285Y-30292142D01*
X76552142Y-30220714D01*
X77123571Y-29863571D02*
X77480714Y-30863571D01*
X77837857Y-29863571D02*
X77480714Y-30863571D01*
X77337857Y-31220714D01*
X77266428Y-31292142D01*
X77123571Y-31363571D01*
X79052142Y-30863571D02*
X79052142Y-30077857D01*
X78980714Y-29935000D01*
X78837857Y-29863571D01*
X78552142Y-29863571D01*
X78409285Y-29935000D01*
X79052142Y-30792142D02*
X78909285Y-30863571D01*
X78552142Y-30863571D01*
X78409285Y-30792142D01*
X78337857Y-30649285D01*
X78337857Y-30506428D01*
X78409285Y-30363571D01*
X78552142Y-30292142D01*
X78909285Y-30292142D01*
X79052142Y-30220714D01*
X80837857Y-30435000D02*
X81552142Y-30435000D01*
X80695000Y-30863571D02*
X81195000Y-29363571D01*
X81695000Y-30863571D01*
X82195000Y-30863571D02*
X82195000Y-29863571D01*
X82195000Y-30006428D02*
X82266428Y-29935000D01*
X82409285Y-29863571D01*
X82623571Y-29863571D01*
X82766428Y-29935000D01*
X82837857Y-30077857D01*
X82837857Y-30863571D01*
X82837857Y-30077857D02*
X82909285Y-29935000D01*
X83052142Y-29863571D01*
X83266428Y-29863571D01*
X83409285Y-29935000D01*
X83480714Y-30077857D01*
X83480714Y-30863571D01*
X84195000Y-29863571D02*
X84195000Y-31363571D01*
X84195000Y-29935000D02*
X84337857Y-29863571D01*
X84623571Y-29863571D01*
X84766428Y-29935000D01*
X84837857Y-30006428D01*
X84909285Y-30149285D01*
X84909285Y-30577857D01*
X84837857Y-30720714D01*
X84766428Y-30792142D01*
X84623571Y-30863571D01*
X84337857Y-30863571D01*
X84195000Y-30792142D01*
X85766428Y-30863571D02*
X85623571Y-30792142D01*
X85552142Y-30649285D01*
X85552142Y-29363571D01*
X86337857Y-30863571D02*
X86337857Y-29863571D01*
X86337857Y-29363571D02*
X86266428Y-29435000D01*
X86337857Y-29506428D01*
X86409285Y-29435000D01*
X86337857Y-29363571D01*
X86337857Y-29506428D01*
X86837857Y-29863571D02*
X87409285Y-29863571D01*
X87052142Y-30863571D02*
X87052142Y-29577857D01*
X87123571Y-29435000D01*
X87266428Y-29363571D01*
X87409285Y-29363571D01*
X87909285Y-30863571D02*
X87909285Y-29863571D01*
X87909285Y-29363571D02*
X87837857Y-29435000D01*
X87909285Y-29506428D01*
X87980714Y-29435000D01*
X87909285Y-29363571D01*
X87909285Y-29506428D01*
X89195000Y-30792142D02*
X89052142Y-30863571D01*
X88766428Y-30863571D01*
X88623571Y-30792142D01*
X88552142Y-30649285D01*
X88552142Y-30077857D01*
X88623571Y-29935000D01*
X88766428Y-29863571D01*
X89052142Y-29863571D01*
X89195000Y-29935000D01*
X89266428Y-30077857D01*
X89266428Y-30220714D01*
X88552142Y-30363571D01*
X89909285Y-30863571D02*
X89909285Y-29863571D01*
X89909285Y-30149285D02*
X89980714Y-30006428D01*
X90052142Y-29935000D01*
X90195000Y-29863571D01*
X90337857Y-29863571D01*
X91980714Y-30863571D02*
X91980714Y-29363571D01*
X92337857Y-29363571D01*
X92552142Y-29435000D01*
X92695000Y-29577857D01*
X92766428Y-29720714D01*
X92837857Y-30006428D01*
X92837857Y-30220714D01*
X92766428Y-30506428D01*
X92695000Y-30649285D01*
X92552142Y-30792142D01*
X92337857Y-30863571D01*
X91980714Y-30863571D01*
X94123571Y-30863571D02*
X94123571Y-30077857D01*
X94052142Y-29935000D01*
X93909285Y-29863571D01*
X93623571Y-29863571D01*
X93480714Y-29935000D01*
X94123571Y-30792142D02*
X93980714Y-30863571D01*
X93623571Y-30863571D01*
X93480714Y-30792142D01*
X93409285Y-30649285D01*
X93409285Y-30506428D01*
X93480714Y-30363571D01*
X93623571Y-30292142D01*
X93980714Y-30292142D01*
X94123571Y-30220714D01*
X95480714Y-29863571D02*
X95480714Y-30863571D01*
X94837857Y-29863571D02*
X94837857Y-30649285D01*
X94909285Y-30792142D01*
X95052142Y-30863571D01*
X95266428Y-30863571D01*
X95409285Y-30792142D01*
X95480714Y-30720714D01*
X96837857Y-29863571D02*
X96837857Y-31077857D01*
X96766428Y-31220714D01*
X96695000Y-31292142D01*
X96552142Y-31363571D01*
X96337857Y-31363571D01*
X96195000Y-31292142D01*
X96837857Y-30792142D02*
X96695000Y-30863571D01*
X96409285Y-30863571D01*
X96266428Y-30792142D01*
X96195000Y-30720714D01*
X96123571Y-30577857D01*
X96123571Y-30149285D01*
X96195000Y-30006428D01*
X96266428Y-29935000D01*
X96409285Y-29863571D01*
X96695000Y-29863571D01*
X96837857Y-29935000D01*
X97552142Y-30863571D02*
X97552142Y-29363571D01*
X98195000Y-30863571D02*
X98195000Y-30077857D01*
X98123571Y-29935000D01*
X97980714Y-29863571D01*
X97766428Y-29863571D01*
X97623571Y-29935000D01*
X97552142Y-30006428D01*
X98695000Y-29863571D02*
X99266428Y-29863571D01*
X98909285Y-29363571D02*
X98909285Y-30649285D01*
X98980714Y-30792142D01*
X99123571Y-30863571D01*
X99266428Y-30863571D01*
X100337857Y-30792142D02*
X100195000Y-30863571D01*
X99909285Y-30863571D01*
X99766428Y-30792142D01*
X99695000Y-30649285D01*
X99695000Y-30077857D01*
X99766428Y-29935000D01*
X99909285Y-29863571D01*
X100195000Y-29863571D01*
X100337857Y-29935000D01*
X100409285Y-30077857D01*
X100409285Y-30220714D01*
X99695000Y-30363571D01*
X101052142Y-30863571D02*
X101052142Y-29863571D01*
X101052142Y-30149285D02*
X101123571Y-30006428D01*
X101195000Y-29935000D01*
X101337857Y-29863571D01*
X101480714Y-29863571D01*
X101980714Y-30863571D02*
X101980714Y-29363571D01*
X101980714Y-29935000D02*
X102123571Y-29863571D01*
X102409285Y-29863571D01*
X102552142Y-29935000D01*
X102623571Y-30006428D01*
X102695000Y-30149285D01*
X102695000Y-30577857D01*
X102623571Y-30720714D01*
X102552142Y-30792142D01*
X102409285Y-30863571D01*
X102123571Y-30863571D01*
X101980714Y-30792142D01*
X103552142Y-30863571D02*
X103409285Y-30792142D01*
X103337857Y-30720714D01*
X103266428Y-30577857D01*
X103266428Y-30149285D01*
X103337857Y-30006428D01*
X103409285Y-29935000D01*
X103552142Y-29863571D01*
X103766428Y-29863571D01*
X103909285Y-29935000D01*
X103980714Y-30006428D01*
X104052142Y-30149285D01*
X104052142Y-30577857D01*
X103980714Y-30720714D01*
X103909285Y-30792142D01*
X103766428Y-30863571D01*
X103552142Y-30863571D01*
X105337857Y-30863571D02*
X105337857Y-30077857D01*
X105266428Y-29935000D01*
X105123571Y-29863571D01*
X104837857Y-29863571D01*
X104695000Y-29935000D01*
X105337857Y-30792142D02*
X105195000Y-30863571D01*
X104837857Y-30863571D01*
X104695000Y-30792142D01*
X104623571Y-30649285D01*
X104623571Y-30506428D01*
X104695000Y-30363571D01*
X104837857Y-30292142D01*
X105195000Y-30292142D01*
X105337857Y-30220714D01*
X106052142Y-30863571D02*
X106052142Y-29863571D01*
X106052142Y-30149285D02*
X106123571Y-30006428D01*
X106195000Y-29935000D01*
X106337857Y-29863571D01*
X106480714Y-29863571D01*
X107623571Y-30863571D02*
X107623571Y-29363571D01*
X107623571Y-30792142D02*
X107480714Y-30863571D01*
X107195000Y-30863571D01*
X107052142Y-30792142D01*
X106980714Y-30720714D01*
X106909285Y-30577857D01*
X106909285Y-30149285D01*
X106980714Y-30006428D01*
X107052142Y-29935000D01*
X107195000Y-29863571D01*
X107480714Y-29863571D01*
X107623571Y-29935000D01*
X74052142Y-33278571D02*
X73552142Y-32564285D01*
X73195000Y-33278571D02*
X73195000Y-31778571D01*
X73766428Y-31778571D01*
X73909285Y-31850000D01*
X73980714Y-31921428D01*
X74052142Y-32064285D01*
X74052142Y-32278571D01*
X73980714Y-32421428D01*
X73909285Y-32492857D01*
X73766428Y-32564285D01*
X73195000Y-32564285D01*
X75266428Y-33207142D02*
X75123571Y-33278571D01*
X74837857Y-33278571D01*
X74695000Y-33207142D01*
X74623571Y-33064285D01*
X74623571Y-32492857D01*
X74695000Y-32350000D01*
X74837857Y-32278571D01*
X75123571Y-32278571D01*
X75266428Y-32350000D01*
X75337857Y-32492857D01*
X75337857Y-32635714D01*
X74623571Y-32778571D01*
X75837857Y-32278571D02*
X76195000Y-33278571D01*
X76552142Y-32278571D01*
X78552142Y-31778571D02*
X78695000Y-31778571D01*
X78837857Y-31850000D01*
X78909285Y-31921428D01*
X78980714Y-32064285D01*
X79052142Y-32350000D01*
X79052142Y-32707142D01*
X78980714Y-32992857D01*
X78909285Y-33135714D01*
X78837857Y-33207142D01*
X78695000Y-33278571D01*
X78552142Y-33278571D01*
X78409285Y-33207142D01*
X78337857Y-33135714D01*
X78266428Y-32992857D01*
X78195000Y-32707142D01*
X78195000Y-32350000D01*
X78266428Y-32064285D01*
X78337857Y-31921428D01*
X78409285Y-31850000D01*
X78552142Y-31778571D01*
X79695000Y-33135714D02*
X79766428Y-33207142D01*
X79695000Y-33278571D01*
X79623571Y-33207142D01*
X79695000Y-33135714D01*
X79695000Y-33278571D01*
X80695000Y-31778571D02*
X80837857Y-31778571D01*
X80980714Y-31850000D01*
X81052142Y-31921428D01*
X81123571Y-32064285D01*
X81195000Y-32350000D01*
X81195000Y-32707142D01*
X81123571Y-32992857D01*
X81052142Y-33135714D01*
X80980714Y-33207142D01*
X80837857Y-33278571D01*
X80695000Y-33278571D01*
X80552142Y-33207142D01*
X80480714Y-33135714D01*
X80409285Y-32992857D01*
X80337857Y-32707142D01*
X80337857Y-32350000D01*
X80409285Y-32064285D01*
X80480714Y-31921428D01*
X80552142Y-31850000D01*
X80695000Y-31778571D01*
X73195000Y-35693571D02*
X73195000Y-34193571D01*
X73552142Y-34193571D01*
X73766428Y-34265000D01*
X73909285Y-34407857D01*
X73980714Y-34550714D01*
X74052142Y-34836428D01*
X74052142Y-35050714D01*
X73980714Y-35336428D01*
X73909285Y-35479285D01*
X73766428Y-35622142D01*
X73552142Y-35693571D01*
X73195000Y-35693571D01*
X75266428Y-35622142D02*
X75123571Y-35693571D01*
X74837857Y-35693571D01*
X74695000Y-35622142D01*
X74623571Y-35479285D01*
X74623571Y-34907857D01*
X74695000Y-34765000D01*
X74837857Y-34693571D01*
X75123571Y-34693571D01*
X75266428Y-34765000D01*
X75337857Y-34907857D01*
X75337857Y-35050714D01*
X74623571Y-35193571D01*
X75980714Y-35693571D02*
X75980714Y-34193571D01*
X76480714Y-35265000D01*
X76980714Y-34193571D01*
X76980714Y-35693571D01*
X77695000Y-35693571D02*
X77695000Y-34693571D01*
X77695000Y-34193571D02*
X77623571Y-34265000D01*
X77695000Y-34336428D01*
X77766428Y-34265000D01*
X77695000Y-34193571D01*
X77695000Y-34336428D01*
X78623571Y-35693571D02*
X78480714Y-35622142D01*
X78409285Y-35479285D01*
X78409285Y-34193571D01*
X79409285Y-35693571D02*
X79266428Y-35622142D01*
X79195000Y-35479285D01*
X79195000Y-34193571D01*
X80552142Y-35622142D02*
X80409285Y-35693571D01*
X80123571Y-35693571D01*
X79980714Y-35622142D01*
X79909285Y-35479285D01*
X79909285Y-34907857D01*
X79980714Y-34765000D01*
X80123571Y-34693571D01*
X80409285Y-34693571D01*
X80552142Y-34765000D01*
X80623571Y-34907857D01*
X80623571Y-35050714D01*
X79909285Y-35193571D01*
X83195000Y-34265000D02*
X83052142Y-34193571D01*
X82837857Y-34193571D01*
X82623571Y-34265000D01*
X82480714Y-34407857D01*
X82409285Y-34550714D01*
X82337857Y-34836428D01*
X82337857Y-35050714D01*
X82409285Y-35336428D01*
X82480714Y-35479285D01*
X82623571Y-35622142D01*
X82837857Y-35693571D01*
X82980714Y-35693571D01*
X83195000Y-35622142D01*
X83266428Y-35550714D01*
X83266428Y-35050714D01*
X82980714Y-35050714D01*
X83909285Y-35693571D02*
X83909285Y-34693571D01*
X83909285Y-34979285D02*
X83980714Y-34836428D01*
X84052142Y-34765000D01*
X84195000Y-34693571D01*
X84337857Y-34693571D01*
X85052142Y-35693571D02*
X84909285Y-35622142D01*
X84837857Y-35550714D01*
X84766428Y-35407857D01*
X84766428Y-34979285D01*
X84837857Y-34836428D01*
X84909285Y-34765000D01*
X85052142Y-34693571D01*
X85266428Y-34693571D01*
X85409285Y-34765000D01*
X85480714Y-34836428D01*
X85552142Y-34979285D01*
X85552142Y-35407857D01*
X85480714Y-35550714D01*
X85409285Y-35622142D01*
X85266428Y-35693571D01*
X85052142Y-35693571D01*
X86837857Y-34693571D02*
X86837857Y-35693571D01*
X86195000Y-34693571D02*
X86195000Y-35479285D01*
X86266428Y-35622142D01*
X86409285Y-35693571D01*
X86623571Y-35693571D01*
X86766428Y-35622142D01*
X86837857Y-35550714D01*
X87552142Y-34693571D02*
X87552142Y-36193571D01*
X87552142Y-34765000D02*
X87695000Y-34693571D01*
X87980714Y-34693571D01*
X88123571Y-34765000D01*
X88195000Y-34836428D01*
X88266428Y-34979285D01*
X88266428Y-35407857D01*
X88195000Y-35550714D01*
X88123571Y-35622142D01*
X87980714Y-35693571D01*
X87695000Y-35693571D01*
X87552142Y-35622142D01*
X90052142Y-35122142D02*
X91195000Y-35122142D01*
X93552142Y-34907857D02*
X93052142Y-34907857D01*
X93052142Y-35693571D02*
X93052142Y-34193571D01*
X93766428Y-34193571D01*
X94337857Y-35693571D02*
X94337857Y-34693571D01*
X94337857Y-34979285D02*
X94409285Y-34836428D01*
X94480714Y-34765000D01*
X94623571Y-34693571D01*
X94766428Y-34693571D01*
X95195000Y-35265000D02*
X95909285Y-35265000D01*
X95052142Y-35693571D02*
X95552142Y-34193571D01*
X96052142Y-35693571D01*
X97195000Y-34693571D02*
X97195000Y-35907857D01*
X97123571Y-36050714D01*
X97052142Y-36122142D01*
X96909285Y-36193571D01*
X96695000Y-36193571D01*
X96552142Y-36122142D01*
X97195000Y-35622142D02*
X97052142Y-35693571D01*
X96766428Y-35693571D01*
X96623571Y-35622142D01*
X96552142Y-35550714D01*
X96480714Y-35407857D01*
X96480714Y-34979285D01*
X96552142Y-34836428D01*
X96623571Y-34765000D01*
X96766428Y-34693571D01*
X97052142Y-34693571D01*
X97195000Y-34765000D01*
D10*
X55900000Y-96757142D02*
X55852380Y-96804761D01*
X55709523Y-96852380D01*
X55614285Y-96852380D01*
X55471428Y-96804761D01*
X55376190Y-96709523D01*
X55328571Y-96614285D01*
X55280952Y-96423809D01*
X55280952Y-96280952D01*
X55328571Y-96090476D01*
X55376190Y-95995238D01*
X55471428Y-95900000D01*
X55614285Y-95852380D01*
X55709523Y-95852380D01*
X55852380Y-95900000D01*
X55900000Y-95947619D01*
X56328571Y-96852380D02*
X56328571Y-95852380D01*
X56328571Y-96328571D02*
X56900000Y-96328571D01*
X56900000Y-96852380D02*
X56900000Y-95852380D01*
X57900000Y-96852380D02*
X57328571Y-96852380D01*
X57614285Y-96852380D02*
X57614285Y-95852380D01*
X57519047Y-95995238D01*
X57423809Y-96090476D01*
X57328571Y-96138095D01*
X59280952Y-95852380D02*
X59471428Y-95852380D01*
X59566666Y-95900000D01*
X59661904Y-95995238D01*
X59709523Y-96185714D01*
X59709523Y-96519047D01*
X59661904Y-96709523D01*
X59566666Y-96804761D01*
X59471428Y-96852380D01*
X59280952Y-96852380D01*
X59185714Y-96804761D01*
X59090476Y-96709523D01*
X59042857Y-96519047D01*
X59042857Y-96185714D01*
X59090476Y-95995238D01*
X59185714Y-95900000D01*
X59280952Y-95852380D01*
X60138095Y-95852380D02*
X60138095Y-96661904D01*
X60185714Y-96757142D01*
X60233333Y-96804761D01*
X60328571Y-96852380D01*
X60519047Y-96852380D01*
X60614285Y-96804761D01*
X60661904Y-96757142D01*
X60709523Y-96661904D01*
X60709523Y-95852380D01*
X61042857Y-95852380D02*
X61614285Y-95852380D01*
X61328571Y-96852380D02*
X61328571Y-95852380D01*
X130923809Y-93071428D02*
X131685714Y-93071428D01*
X131304761Y-93452380D02*
X131304761Y-92690476D01*
X132066666Y-92452380D02*
X132733333Y-92452380D01*
X132304761Y-93452380D01*
X133114285Y-93071428D02*
X133876190Y-93071428D01*
X134352380Y-93071428D02*
X135114285Y-93071428D01*
X136114285Y-93452380D02*
X135542857Y-93452380D01*
X135828571Y-93452380D02*
X135828571Y-92452380D01*
X135733333Y-92595238D01*
X135638095Y-92690476D01*
X135542857Y-92738095D01*
X136733333Y-92452380D02*
X136828571Y-92452380D01*
X136923809Y-92500000D01*
X136971428Y-92547619D01*
X137019047Y-92642857D01*
X137066666Y-92833333D01*
X137066666Y-93071428D01*
X137019047Y-93261904D01*
X136971428Y-93357142D01*
X136923809Y-93404761D01*
X136828571Y-93452380D01*
X136733333Y-93452380D01*
X136638095Y-93404761D01*
X136590476Y-93357142D01*
X136542857Y-93261904D01*
X136495238Y-93071428D01*
X136495238Y-92833333D01*
X136542857Y-92642857D01*
X136590476Y-92547619D01*
X136638095Y-92500000D01*
X136733333Y-92452380D01*
X137352380Y-92452380D02*
X137685714Y-93452380D01*
X138019047Y-92452380D01*
X99428571Y-101957142D02*
X99380952Y-102004761D01*
X99238095Y-102052380D01*
X99142857Y-102052380D01*
X99000000Y-102004761D01*
X98904761Y-101909523D01*
X98857142Y-101814285D01*
X98809523Y-101623809D01*
X98809523Y-101480952D01*
X98857142Y-101290476D01*
X98904761Y-101195238D01*
X99000000Y-101100000D01*
X99142857Y-101052380D01*
X99238095Y-101052380D01*
X99380952Y-101100000D01*
X99428571Y-101147619D01*
X99857142Y-102052380D02*
X99857142Y-101052380D01*
X99857142Y-101528571D02*
X100428571Y-101528571D01*
X100428571Y-102052380D02*
X100428571Y-101052380D01*
X100857142Y-101147619D02*
X100904761Y-101100000D01*
X101000000Y-101052380D01*
X101238095Y-101052380D01*
X101333333Y-101100000D01*
X101380952Y-101147619D01*
X101428571Y-101242857D01*
X101428571Y-101338095D01*
X101380952Y-101480952D01*
X100809523Y-102052380D01*
X101428571Y-102052380D01*
X103190476Y-102052380D02*
X102857142Y-101576190D01*
X102619047Y-102052380D02*
X102619047Y-101052380D01*
X103000000Y-101052380D01*
X103095238Y-101100000D01*
X103142857Y-101147619D01*
X103190476Y-101242857D01*
X103190476Y-101385714D01*
X103142857Y-101480952D01*
X103095238Y-101528571D01*
X103000000Y-101576190D01*
X102619047Y-101576190D01*
X103571428Y-101766666D02*
X104047619Y-101766666D01*
X103476190Y-102052380D02*
X103809523Y-101052380D01*
X104142857Y-102052380D01*
X104380952Y-101052380D02*
X104619047Y-102052380D01*
X104809523Y-101338095D01*
X105000000Y-102052380D01*
X105238095Y-101052380D01*
%TO.C,J1*%
X130202380Y-95873333D02*
X130916666Y-95873333D01*
X131059523Y-95920952D01*
X131154761Y-96016190D01*
X131202380Y-96159047D01*
X131202380Y-96254285D01*
X131202380Y-94873333D02*
X131202380Y-95444761D01*
X131202380Y-95159047D02*
X130202380Y-95159047D01*
X130345238Y-95254285D01*
X130440476Y-95349523D01*
X130488095Y-95444761D01*
%TO.C,J3*%
X99866666Y-89452380D02*
X99866666Y-90166666D01*
X99819047Y-90309523D01*
X99723809Y-90404761D01*
X99580952Y-90452380D01*
X99485714Y-90452380D01*
X100247619Y-89452380D02*
X100866666Y-89452380D01*
X100533333Y-89833333D01*
X100676190Y-89833333D01*
X100771428Y-89880952D01*
X100819047Y-89928571D01*
X100866666Y-90023809D01*
X100866666Y-90261904D01*
X100819047Y-90357142D01*
X100771428Y-90404761D01*
X100676190Y-90452380D01*
X100390476Y-90452380D01*
X100295238Y-90404761D01*
X100247619Y-90357142D01*
%TO.C,J5*%
X64866666Y-89452380D02*
X64866666Y-90166666D01*
X64819047Y-90309523D01*
X64723809Y-90404761D01*
X64580952Y-90452380D01*
X64485714Y-90452380D01*
X65819047Y-89452380D02*
X65342857Y-89452380D01*
X65295238Y-89928571D01*
X65342857Y-89880952D01*
X65438095Y-89833333D01*
X65676190Y-89833333D01*
X65771428Y-89880952D01*
X65819047Y-89928571D01*
X65866666Y-90023809D01*
X65866666Y-90261904D01*
X65819047Y-90357142D01*
X65771428Y-90404761D01*
X65676190Y-90452380D01*
X65438095Y-90452380D01*
X65342857Y-90404761D01*
X65295238Y-90357142D01*
%TO.C,H1*%
X131638095Y-27452380D02*
X131638095Y-26452380D01*
X131638095Y-26928571D02*
X132209523Y-26928571D01*
X132209523Y-27452380D02*
X132209523Y-26452380D01*
X133209523Y-27452380D02*
X132638095Y-27452380D01*
X132923809Y-27452380D02*
X132923809Y-26452380D01*
X132828571Y-26595238D01*
X132733333Y-26690476D01*
X132638095Y-26738095D01*
%TO.C,H3*%
X56838095Y-27452380D02*
X56838095Y-26452380D01*
X56838095Y-26928571D02*
X57409523Y-26928571D01*
X57409523Y-27452380D02*
X57409523Y-26452380D01*
X57790476Y-26452380D02*
X58409523Y-26452380D01*
X58076190Y-26833333D01*
X58219047Y-26833333D01*
X58314285Y-26880952D01*
X58361904Y-26928571D01*
X58409523Y-27023809D01*
X58409523Y-27261904D01*
X58361904Y-27357142D01*
X58314285Y-27404761D01*
X58219047Y-27452380D01*
X57933333Y-27452380D01*
X57838095Y-27404761D01*
X57790476Y-27357142D01*
%TO.C,J4*%
X74666666Y-92702380D02*
X74666666Y-93416666D01*
X74619047Y-93559523D01*
X74523809Y-93654761D01*
X74380952Y-93702380D01*
X74285714Y-93702380D01*
X75571428Y-93035714D02*
X75571428Y-93702380D01*
X75333333Y-92654761D02*
X75095238Y-93369047D01*
X75714285Y-93369047D01*
%TO.C,J2*%
X109666666Y-92702380D02*
X109666666Y-93416666D01*
X109619047Y-93559523D01*
X109523809Y-93654761D01*
X109380952Y-93702380D01*
X109285714Y-93702380D01*
X110095238Y-92797619D02*
X110142857Y-92750000D01*
X110238095Y-92702380D01*
X110476190Y-92702380D01*
X110571428Y-92750000D01*
X110619047Y-92797619D01*
X110666666Y-92892857D01*
X110666666Y-92988095D01*
X110619047Y-93130952D01*
X110047619Y-93702380D01*
X110666666Y-93702380D01*
%TO.C,H4*%
X53438095Y-78252380D02*
X53438095Y-77252380D01*
X53438095Y-77728571D02*
X54009523Y-77728571D01*
X54009523Y-78252380D02*
X54009523Y-77252380D01*
X54914285Y-77585714D02*
X54914285Y-78252380D01*
X54676190Y-77204761D02*
X54438095Y-77919047D01*
X55057142Y-77919047D01*
%TO.C,H2*%
X131238095Y-81652380D02*
X131238095Y-80652380D01*
X131238095Y-81128571D02*
X131809523Y-81128571D01*
X131809523Y-81652380D02*
X131809523Y-80652380D01*
X132238095Y-80747619D02*
X132285714Y-80700000D01*
X132380952Y-80652380D01*
X132619047Y-80652380D01*
X132714285Y-80700000D01*
X132761904Y-80747619D01*
X132809523Y-80842857D01*
X132809523Y-80938095D01*
X132761904Y-81080952D01*
X132190476Y-81652380D01*
X132809523Y-81652380D01*
D12*
%TO.C,J1*%
X123050000Y-91500000D02*
X127350000Y-91500000D01*
X128700000Y-94500000D02*
X127700000Y-94250000D01*
X127350000Y-99580000D02*
X123050000Y-99580000D01*
X123050000Y-96580000D02*
X127350000Y-96580000D01*
X127700000Y-94250000D02*
X127700000Y-93750000D01*
X128700000Y-91500000D02*
X128700000Y-94500000D01*
X123050000Y-97330000D02*
X123050000Y-96580000D01*
X123050000Y-94500000D02*
X123050000Y-93750000D01*
X127350000Y-98830000D02*
X127350000Y-99580000D01*
X129660000Y-90350000D02*
X122190000Y-90350000D01*
X127350000Y-92250000D02*
X127700000Y-92250000D01*
X130050000Y-89960000D02*
X130050000Y-91960000D01*
X127350000Y-97330000D02*
X127700000Y-97330000D01*
X127700000Y-97330000D02*
X127700000Y-96830000D01*
X127350000Y-96580000D02*
X127350000Y-97330000D01*
X127350000Y-91500000D02*
X127350000Y-92250000D01*
X129660000Y-100730000D02*
X129660000Y-90350000D01*
X127700000Y-99330000D02*
X127700000Y-98830000D01*
X128700000Y-99580000D02*
X127700000Y-99330000D01*
X122190000Y-90350000D02*
X122190000Y-100730000D01*
X128800000Y-89960000D02*
X130050000Y-89960000D01*
X127700000Y-92250000D02*
X127700000Y-91750000D01*
X128700000Y-96580000D02*
X128700000Y-99580000D01*
X127350000Y-94500000D02*
X123050000Y-94500000D01*
X127700000Y-91750000D02*
X128700000Y-91500000D01*
X127350000Y-93750000D02*
X127350000Y-94500000D01*
X127700000Y-93750000D02*
X127350000Y-93750000D01*
X127700000Y-98830000D02*
X127350000Y-98830000D01*
X122190000Y-100730000D02*
X129660000Y-100730000D01*
X123050000Y-92250000D02*
X123050000Y-91500000D01*
X127700000Y-96830000D02*
X128700000Y-96580000D01*
X123050000Y-99580000D02*
X123050000Y-98830000D01*
X123050155Y-98829647D02*
G75*
G03*
X123050000Y-97330000I-1700155J749647D01*
G01*
X123050155Y-93749647D02*
G75*
G03*
X123050000Y-92250000I-1700155J749647D01*
G01*
%TO.C,J3*%
X98680000Y-88200000D02*
X98680000Y-91800000D01*
X91320000Y-88200000D02*
X91320000Y-91800000D01*
X93200000Y-93680000D02*
X96800000Y-93680000D01*
X93200000Y-86320000D02*
X96800000Y-86320000D01*
%TO.C,J5*%
X63680000Y-88200000D02*
X63680000Y-91800000D01*
X58200000Y-86320000D02*
X61800000Y-86320000D01*
X56320000Y-88200000D02*
X56320000Y-91800000D01*
X58200000Y-93680000D02*
X61800000Y-93680000D01*
%TO.C,J4*%
X73200000Y-94320000D02*
X76800000Y-94320000D01*
X71320000Y-96200000D02*
X71320000Y-99800000D01*
X73200000Y-101680000D02*
X76800000Y-101680000D01*
X78680000Y-96200000D02*
X78680000Y-99800000D01*
%TO.C,J2*%
X113680000Y-96200000D02*
X113680000Y-99800000D01*
X106320000Y-96200000D02*
X106320000Y-99800000D01*
X108200000Y-101680000D02*
X111800000Y-101680000D01*
X108200000Y-94320000D02*
X111800000Y-94320000D01*
%TD*%
%LPC*%
D13*
%TO.C,R2*%
X82800000Y-48120000D03*
D14*
X82800000Y-58280000D03*
%TD*%
D15*
%TO.C,J1*%
X125200000Y-93000000D03*
D16*
X125200000Y-98080000D03*
%TD*%
D17*
%TO.C,J3*%
X95000000Y-90000000D03*
D18*
X97540000Y-87460000D03*
X97540000Y-92540000D03*
X92460000Y-92540000D03*
X92460000Y-87460000D03*
%TD*%
D17*
%TO.C,J5*%
X60000000Y-90000000D03*
D18*
X62540000Y-87460000D03*
X62540000Y-92540000D03*
X57460000Y-92540000D03*
X57460000Y-87460000D03*
%TD*%
D19*
%TO.C,H1*%
X135409010Y-26409010D03*
X138590990Y-26409010D03*
X135409010Y-29590990D03*
X134750000Y-28000000D03*
D20*
X137000000Y-28000000D03*
D19*
X139250000Y-28000000D03*
X137000000Y-25750000D03*
X137000000Y-30250000D03*
X138590990Y-29590990D03*
%TD*%
%TO.C,H3*%
X53000000Y-25750000D03*
X54590990Y-29590990D03*
D20*
X53000000Y-28000000D03*
D19*
X50750000Y-28000000D03*
X51409010Y-29590990D03*
X51409010Y-26409010D03*
X54590990Y-26409010D03*
X53000000Y-30250000D03*
X55250000Y-28000000D03*
%TD*%
D17*
%TO.C,J4*%
X75000000Y-98000000D03*
D18*
X72460000Y-95460000D03*
X77540000Y-95460000D03*
X72460000Y-100540000D03*
X77540000Y-100540000D03*
%TD*%
D17*
%TO.C,J2*%
X110000000Y-98000000D03*
D18*
X107460000Y-95460000D03*
X107460000Y-100540000D03*
X112540000Y-95460000D03*
X112540000Y-100540000D03*
%TD*%
D19*
%TO.C,H4*%
X51409010Y-83590990D03*
X55250000Y-82000000D03*
X51409010Y-80409010D03*
X53000000Y-79750000D03*
D20*
X53000000Y-82000000D03*
D19*
X54590990Y-80409010D03*
X50750000Y-82000000D03*
X53000000Y-84250000D03*
X54590990Y-83590990D03*
%TD*%
%TO.C,H2*%
X139250000Y-82000000D03*
X137000000Y-84250000D03*
X138590990Y-80409010D03*
X135409010Y-80409010D03*
X135409010Y-83590990D03*
X138590990Y-83590990D03*
X137000000Y-79750000D03*
D20*
X137000000Y-82000000D03*
D19*
X134750000Y-82000000D03*
%TD*%
D21*
%TO.C,D1*%
X111750000Y-52330000D03*
D22*
X111750000Y-42170000D03*
%TD*%
D23*
%TO.C,C11*%
X100200000Y-83200000D03*
X100200000Y-75700000D03*
%TD*%
D24*
%TO.C,U2*%
X78800000Y-45600000D03*
D14*
X78800000Y-48140000D03*
X78800000Y-50680000D03*
X78800000Y-53220000D03*
X71180000Y-53220000D03*
X71180000Y-50680000D03*
X71180000Y-48140000D03*
X71180000Y-45600000D03*
%TD*%
D13*
%TO.C,R7*%
X95000000Y-59640000D03*
D14*
X95000000Y-69800000D03*
%TD*%
D23*
%TO.C,C1*%
X117250000Y-56000000D03*
X124750000Y-56000000D03*
%TD*%
%TO.C,C3*%
X71250000Y-40150000D03*
X78750000Y-40150000D03*
%TD*%
%TO.C,C4*%
X78750000Y-59150000D03*
X71250000Y-59150000D03*
%TD*%
%TO.C,C2*%
X117250000Y-37500000D03*
X124750000Y-37500000D03*
%TD*%
D25*
%TO.C,U1*%
X133910000Y-47250000D03*
D26*
X117250000Y-49790000D03*
D27*
X117250000Y-47250000D03*
X117250000Y-44710000D03*
%TD*%
D13*
%TO.C,R6*%
X66600000Y-47800000D03*
D14*
X56440000Y-47800000D03*
%TD*%
D13*
%TO.C,R4*%
X75000000Y-75960000D03*
D14*
X75000000Y-65800000D03*
%TD*%
D23*
%TO.C,C8*%
X66600000Y-42400000D03*
X59100000Y-42400000D03*
%TD*%
D13*
%TO.C,R10*%
X65400000Y-73040000D03*
D14*
X65400000Y-83200000D03*
%TD*%
D13*
%TO.C,R3*%
X97280000Y-42200000D03*
D14*
X87120000Y-42200000D03*
%TD*%
D13*
%TO.C,R5*%
X56440000Y-52000000D03*
D14*
X66600000Y-52000000D03*
%TD*%
D13*
%TO.C,R9*%
X95000000Y-73040000D03*
D14*
X95000000Y-83200000D03*
%TD*%
D23*
%TO.C,C12*%
X60000000Y-83200000D03*
X60000000Y-75700000D03*
%TD*%
%TO.C,C10*%
X60000000Y-69800000D03*
X60000000Y-62300000D03*
%TD*%
%TO.C,C5*%
X94700000Y-48200000D03*
X87200000Y-48200000D03*
%TD*%
%TO.C,C9*%
X100200000Y-69800000D03*
X100200000Y-62300000D03*
%TD*%
D13*
%TO.C,R8*%
X65400000Y-59640000D03*
D14*
X65400000Y-69800000D03*
%TD*%
D13*
%TO.C,R1*%
X89000000Y-65000000D03*
D14*
X89000000Y-54840000D03*
%TD*%
D21*
%TO.C,D2*%
X117200000Y-32200000D03*
D22*
X127360000Y-32200000D03*
%TD*%
M02*
